%TF.GenerationSoftware,KiCad,Pcbnew,(5.1.10)-1*%
%TF.CreationDate,2026-01-07T09:41:38-07:00*%
%TF.ProjectId,pico_switch,7069636f-5f73-4776-9974-63682e6b6963,rev?*%
%TF.SameCoordinates,Original*%
%TF.FileFunction,Soldermask,Bot*%
%TF.FilePolarity,Negative*%
%FSLAX46Y46*%
G04 Gerber Fmt 4.6, Leading zero omitted, Abs format (unit mm)*
G04 Created by KiCad (PCBNEW (5.1.10)-1) date 2026-01-07 09:41:38*
%MOMM*%
%LPD*%
G01*
G04 APERTURE LIST*
%ADD10C,1.524000*%
%ADD11C,3.200000*%
%ADD12R,1.524000X1.524000*%
%ADD13C,2.100000*%
%ADD14O,1.700000X1.700000*%
%ADD15R,1.700000X1.700000*%
%ADD16C,1.700000*%
%ADD17R,1.050000X1.500000*%
%ADD18O,1.050000X1.500000*%
%ADD19O,1.600000X1.600000*%
%ADD20C,1.600000*%
%ADD21O,1.070000X1.800000*%
%ADD22R,1.070000X1.800000*%
%ADD23C,1.800000*%
%ADD24R,1.800000X1.800000*%
G04 APERTURE END LIST*
D10*
%TO.C,PPADS*%
X147320000Y-101600000D03*
X144780000Y-101600000D03*
X142240000Y-101600000D03*
X139700000Y-101600000D03*
X147320000Y-99060000D03*
X144780000Y-99060000D03*
X142240000Y-99060000D03*
X139700000Y-99060000D03*
X147320000Y-96520000D03*
X144780000Y-96520000D03*
X142240000Y-96520000D03*
X139700000Y-96520000D03*
X147320000Y-93980000D03*
X144780000Y-93980000D03*
X142240000Y-93980000D03*
X139700000Y-93980000D03*
X147320000Y-91440000D03*
X144780000Y-91440000D03*
X142240000Y-91440000D03*
X139700000Y-91440000D03*
X147320000Y-88900000D03*
X144780000Y-88900000D03*
X142240000Y-88900000D03*
X139700000Y-88900000D03*
X147320000Y-86360000D03*
X144780000Y-86360000D03*
X142240000Y-86360000D03*
X139700000Y-86360000D03*
X147320000Y-83820000D03*
X144780000Y-83820000D03*
X142240000Y-83820000D03*
X139700000Y-83820000D03*
X147320000Y-81280000D03*
X144780000Y-81280000D03*
X142240000Y-81280000D03*
X139700000Y-81280000D03*
X147320000Y-78740000D03*
X144780000Y-78740000D03*
X142240000Y-78740000D03*
X139700000Y-78740000D03*
X147320000Y-76200000D03*
X144780000Y-76200000D03*
X142240000Y-76200000D03*
X139700000Y-76200000D03*
X147320000Y-73660000D03*
X144780000Y-73660000D03*
X142240000Y-73660000D03*
X139700000Y-73660000D03*
X147320000Y-71120000D03*
X144780000Y-71120000D03*
X142240000Y-71120000D03*
X139700000Y-71120000D03*
%TD*%
D11*
%TO.C,MH4*%
X80772000Y-104013000D03*
%TD*%
%TO.C,MH2*%
X159512000Y-68453000D03*
%TD*%
%TO.C,MH3*%
X159512000Y-104013000D03*
%TD*%
%TO.C,MH1*%
X80772000Y-68453000D03*
%TD*%
D12*
%TO.C,U1*%
X78422500Y-93281500D03*
D10*
X80962500Y-93281500D03*
X83502500Y-93281500D03*
X86042500Y-93281500D03*
X88582500Y-93281500D03*
X91122500Y-93281500D03*
X93662500Y-93281500D03*
X96202500Y-93281500D03*
X98742500Y-93281500D03*
X101282500Y-93281500D03*
X103822500Y-93281500D03*
X106362500Y-93281500D03*
X108902500Y-93281500D03*
X111442500Y-93281500D03*
X113982500Y-93281500D03*
X116522500Y-93281500D03*
X119062500Y-93281500D03*
X121602500Y-93281500D03*
X124142500Y-93281500D03*
X126682500Y-93281500D03*
X126682500Y-75501500D03*
X124142500Y-75501500D03*
X121602500Y-75501500D03*
X119062500Y-75501500D03*
X116522500Y-75501500D03*
X113982500Y-75501500D03*
X111442500Y-75501500D03*
X108902500Y-75501500D03*
X106362500Y-75501500D03*
X103822500Y-75501500D03*
X101282500Y-75501500D03*
X98742500Y-75501500D03*
X96202500Y-75501500D03*
X93662500Y-75501500D03*
X91122500Y-75501500D03*
X88582500Y-75501500D03*
X86042500Y-75501500D03*
X83502500Y-75501500D03*
X80962500Y-75501500D03*
X78422500Y-75501500D03*
D13*
X79184500Y-78528700D03*
X79184500Y-89928700D03*
X125945900Y-78346300D03*
X125945900Y-89877900D03*
%TD*%
D14*
%TO.C,J4*%
X149860000Y-63500000D03*
X147320000Y-63500000D03*
X144780000Y-63500000D03*
X154940000Y-63500000D03*
X152400000Y-63500000D03*
X142240000Y-63500000D03*
X139700000Y-63500000D03*
X137160000Y-63500000D03*
D15*
X134620000Y-63500000D03*
%TD*%
%TO.C,U2*%
X162560000Y-83820000D03*
D14*
X162560000Y-86360000D03*
X162560000Y-88900000D03*
X162560000Y-91440000D03*
%TD*%
%TO.C,J5*%
X154940000Y-91440000D03*
X154940000Y-88900000D03*
X154940000Y-86360000D03*
X154940000Y-96520000D03*
X154940000Y-93980000D03*
X154940000Y-83820000D03*
X154940000Y-81280000D03*
X154940000Y-78740000D03*
D15*
X154940000Y-76200000D03*
%TD*%
D14*
%TO.C,J2*%
X149860000Y-109220000D03*
X147320000Y-109220000D03*
X144780000Y-109220000D03*
X154940000Y-109220000D03*
X152400000Y-109220000D03*
X142240000Y-109220000D03*
X139700000Y-109220000D03*
X137160000Y-109220000D03*
D15*
X134620000Y-109220000D03*
%TD*%
D14*
%TO.C,J1*%
X132080000Y-91440000D03*
X132080000Y-88900000D03*
X132080000Y-86360000D03*
X132080000Y-96520000D03*
X132080000Y-93980000D03*
X132080000Y-83820000D03*
X132080000Y-81280000D03*
X132080000Y-78740000D03*
D15*
X132080000Y-76200000D03*
%TD*%
%TO.C,J3*%
X78740000Y-62230000D03*
D14*
X81280000Y-62230000D03*
X83820000Y-62230000D03*
X86360000Y-62230000D03*
%TD*%
D15*
%TO.C,J6*%
X91440000Y-62230000D03*
D14*
X93980000Y-62230000D03*
X96520000Y-62230000D03*
X99060000Y-62230000D03*
%TD*%
D15*
%TO.C,U6*%
X115570000Y-62230000D03*
D16*
X113030000Y-62230000D03*
X110490000Y-62230000D03*
D14*
X107950000Y-62230000D03*
D16*
X105410000Y-62230000D03*
%TD*%
D15*
%TO.C,U5*%
X81280000Y-110363000D03*
D14*
X83820000Y-110363000D03*
X86360000Y-110363000D03*
X88900000Y-110363000D03*
X91440000Y-110363000D03*
X93980000Y-110363000D03*
%TD*%
%TO.C,U3*%
X102108000Y-110363000D03*
X104648000Y-110363000D03*
X107188000Y-110363000D03*
X109728000Y-110363000D03*
X112268000Y-110363000D03*
D15*
X114808000Y-110363000D03*
%TD*%
D17*
%TO.C,U7*%
X125730000Y-62230000D03*
D18*
X123190000Y-62230000D03*
X124460000Y-62230000D03*
%TD*%
D19*
%TO.C,R5*%
X104140000Y-69850000D03*
D20*
X101600000Y-69850000D03*
%TD*%
D19*
%TO.C,R3*%
X104140000Y-99060000D03*
D20*
X101600000Y-99060000D03*
%TD*%
D19*
%TO.C,R2*%
X98869500Y-99060000D03*
D20*
X96329500Y-99060000D03*
%TD*%
D19*
%TO.C,R1*%
X93535500Y-99060000D03*
D20*
X90995500Y-99060000D03*
%TD*%
D21*
%TO.C,D1*%
X110490000Y-99060000D03*
X109220000Y-99060000D03*
X107950000Y-99060000D03*
D22*
X106680000Y-99060000D03*
%TD*%
D19*
%TO.C,R6*%
X109347000Y-69850000D03*
D20*
X106807000Y-69850000D03*
%TD*%
D15*
%TO.C,U4*%
X127000000Y-109220000D03*
D14*
X124460000Y-109220000D03*
D16*
X121920000Y-109220000D03*
%TD*%
D19*
%TO.C,R4*%
X84264500Y-98298000D03*
D20*
X86804500Y-98298000D03*
%TD*%
D23*
%TO.C,D2*%
X81915000Y-98234500D03*
D24*
X79375000Y-98234500D03*
%TD*%
M02*
