%TF.GenerationSoftware,KiCad,Pcbnew,(5.1.10)-1*%
%TF.CreationDate,2026-01-07T09:41:38-07:00*%
%TF.ProjectId,pico_switch,7069636f-5f73-4776-9974-63682e6b6963,rev?*%
%TF.SameCoordinates,Original*%
%TF.FileFunction,Copper,L1,Top*%
%TF.FilePolarity,Positive*%
%FSLAX46Y46*%
G04 Gerber Fmt 4.6, Leading zero omitted, Abs format (unit mm)*
G04 Created by KiCad (PCBNEW (5.1.10)-1) date 2026-01-07 09:41:38*
%MOMM*%
%LPD*%
G01*
G04 APERTURE LIST*
%TA.AperFunction,ComponentPad*%
%ADD10C,1.524000*%
%TD*%
%TA.AperFunction,ComponentPad*%
%ADD11R,1.524000X1.524000*%
%TD*%
%TA.AperFunction,ComponentPad*%
%ADD12O,1.700000X1.700000*%
%TD*%
%TA.AperFunction,ComponentPad*%
%ADD13R,1.700000X1.700000*%
%TD*%
%TA.AperFunction,ComponentPad*%
%ADD14C,1.700000*%
%TD*%
%TA.AperFunction,ComponentPad*%
%ADD15R,1.050000X1.500000*%
%TD*%
%TA.AperFunction,ComponentPad*%
%ADD16O,1.050000X1.500000*%
%TD*%
%TA.AperFunction,ComponentPad*%
%ADD17O,1.600000X1.600000*%
%TD*%
%TA.AperFunction,ComponentPad*%
%ADD18C,1.600000*%
%TD*%
%TA.AperFunction,ComponentPad*%
%ADD19O,1.070000X1.800000*%
%TD*%
%TA.AperFunction,ComponentPad*%
%ADD20R,1.070000X1.800000*%
%TD*%
%TA.AperFunction,ComponentPad*%
%ADD21C,1.800000*%
%TD*%
%TA.AperFunction,ComponentPad*%
%ADD22R,1.800000X1.800000*%
%TD*%
%TA.AperFunction,ViaPad*%
%ADD23C,0.800000*%
%TD*%
%TA.AperFunction,Conductor*%
%ADD24C,0.250000*%
%TD*%
G04 APERTURE END LIST*
D10*
%TO.P,PPADS,52*%
%TO.N,N/C*%
X147320000Y-101600000D03*
%TO.P,PPADS,51*%
X144780000Y-101600000D03*
%TO.P,PPADS,50*%
X142240000Y-101600000D03*
%TO.P,PPADS,49*%
X139700000Y-101600000D03*
%TO.P,PPADS,48*%
X147320000Y-99060000D03*
%TO.P,PPADS,47*%
X144780000Y-99060000D03*
%TO.P,PPADS,46*%
X142240000Y-99060000D03*
%TO.P,PPADS,45*%
X139700000Y-99060000D03*
%TO.P,PPADS,44*%
X147320000Y-96520000D03*
%TO.P,PPADS,43*%
X144780000Y-96520000D03*
%TO.P,PPADS,42*%
X142240000Y-96520000D03*
%TO.P,PPADS,41*%
X139700000Y-96520000D03*
%TO.P,PPADS,40*%
X147320000Y-93980000D03*
%TO.P,PPADS,39*%
X144780000Y-93980000D03*
%TO.P,PPADS,38*%
X142240000Y-93980000D03*
%TO.P,PPADS,37*%
X139700000Y-93980000D03*
%TO.P,PPADS,36*%
X147320000Y-91440000D03*
%TO.P,PPADS,35*%
X144780000Y-91440000D03*
%TO.P,PPADS,34*%
X142240000Y-91440000D03*
%TO.P,PPADS,33*%
X139700000Y-91440000D03*
%TO.P,PPADS,32*%
X147320000Y-88900000D03*
%TO.P,PPADS,31*%
X144780000Y-88900000D03*
%TO.P,PPADS,30*%
X142240000Y-88900000D03*
%TO.P,PPADS,29*%
X139700000Y-88900000D03*
%TO.P,PPADS,28*%
X147320000Y-86360000D03*
%TO.P,PPADS,27*%
X144780000Y-86360000D03*
%TO.P,PPADS,26*%
X142240000Y-86360000D03*
%TO.P,PPADS,25*%
X139700000Y-86360000D03*
%TO.P,PPADS,24*%
X147320000Y-83820000D03*
%TO.P,PPADS,23*%
X144780000Y-83820000D03*
%TO.P,PPADS,22*%
X142240000Y-83820000D03*
%TO.P,PPADS,21*%
X139700000Y-83820000D03*
%TO.P,PPADS,20*%
X147320000Y-81280000D03*
%TO.P,PPADS,19*%
X144780000Y-81280000D03*
%TO.P,PPADS,18*%
X142240000Y-81280000D03*
%TO.P,PPADS,17*%
X139700000Y-81280000D03*
%TO.P,PPADS,16*%
X147320000Y-78740000D03*
X144780000Y-78740000D03*
%TO.P,PPADS,14*%
X142240000Y-78740000D03*
%TO.P,PPADS,13*%
X139700000Y-78740000D03*
%TO.P,PPADS,12*%
X147320000Y-76200000D03*
%TO.P,PPADS,11*%
X144780000Y-76200000D03*
%TO.P,PPADS,10*%
X142240000Y-76200000D03*
%TO.P,PPADS,9*%
X139700000Y-76200000D03*
%TO.P,PPADS,8*%
X147320000Y-73660000D03*
%TO.P,PPADS,7*%
X144780000Y-73660000D03*
%TO.P,PPADS,6*%
X142240000Y-73660000D03*
%TO.P,PPADS,5*%
X139700000Y-73660000D03*
%TO.P,PPADS,4*%
X147320000Y-71120000D03*
%TO.P,PPADS,3*%
X144780000Y-71120000D03*
%TO.P,PPADS,2*%
X142240000Y-71120000D03*
%TO.P,PPADS,1*%
X139700000Y-71120000D03*
%TD*%
D11*
%TO.P,U1,1*%
%TO.N,Net-(J6-Pad1)*%
X78422500Y-93281500D03*
D10*
%TO.P,U1,2*%
%TO.N,Net-(D2-Pad1)*%
X80962500Y-93281500D03*
%TO.P,U1,3*%
%TO.N,GND*%
X83502500Y-93281500D03*
%TO.P,U1,4*%
%TO.N,Net-(U1-Pad4)*%
X86042500Y-93281500D03*
%TO.P,U1,5*%
%TO.N,Net-(U1-Pad5)*%
X88582500Y-93281500D03*
%TO.P,U1,6*%
%TO.N,Net-(R1-Pad2)*%
X91122500Y-93281500D03*
%TO.P,U1,7*%
%TO.N,Net-(R2-Pad2)*%
X93662500Y-93281500D03*
%TO.P,U1,8*%
%TO.N,GND*%
X96202500Y-93281500D03*
%TO.P,U1,9*%
%TO.N,Net-(R3-Pad2)*%
X98742500Y-93281500D03*
%TO.P,U1,10*%
%TO.N,Net-(J1-Pad1)*%
X101282500Y-93281500D03*
%TO.P,U1,11*%
%TO.N,Net-(U1-Pad11)*%
X103822500Y-93281500D03*
%TO.P,U1,12*%
%TO.N,Net-(U1-Pad12)*%
X106362500Y-93281500D03*
%TO.P,U1,13*%
%TO.N,GND*%
X108902500Y-93281500D03*
%TO.P,U1,14*%
%TO.N,Net-(U1-Pad14)*%
X111442500Y-93281500D03*
%TO.P,U1,15*%
%TO.N,Net-(U1-Pad15)*%
X113982500Y-93281500D03*
%TO.P,U1,16*%
%TO.N,Net-(J1-Pad2)*%
X116522500Y-93281500D03*
%TO.P,U1,17*%
%TO.N,Net-(J1-Pad3)*%
X119062500Y-93281500D03*
%TO.P,U1,18*%
%TO.N,GND*%
X121602500Y-93281500D03*
%TO.P,U1,19*%
%TO.N,Net-(J1-Pad4)*%
X124142500Y-93281500D03*
%TO.P,U1,20*%
%TO.N,Net-(J1-Pad5)*%
X126682500Y-93281500D03*
%TO.P,U1,21*%
%TO.N,Net-(U1-Pad21)*%
X126682500Y-75501500D03*
%TO.P,U1,22*%
%TO.N,Net-(U1-Pad22)*%
X124142500Y-75501500D03*
%TO.P,U1,23*%
%TO.N,GND*%
X121602500Y-75501500D03*
%TO.P,U1,24*%
%TO.N,Net-(J1-Pad6)*%
X119062500Y-75501500D03*
%TO.P,U1,25*%
%TO.N,Net-(J4-Pad1)*%
X116522500Y-75501500D03*
%TO.P,U1,26*%
%TO.N,Net-(J4-Pad2)*%
X113982500Y-75501500D03*
%TO.P,U1,27*%
%TO.N,Net-(J4-Pad3)*%
X111442500Y-75501500D03*
%TO.P,U1,28*%
%TO.N,GND*%
X108902500Y-75501500D03*
%TO.P,U1,29*%
%TO.N,Net-(J4-Pad4)*%
X106362500Y-75501500D03*
%TO.P,U1,30*%
%TO.N,Net-(U1-Pad30)*%
X103822500Y-75501500D03*
%TO.P,U1,31*%
%TO.N,Net-(R5-Pad2)*%
X101282500Y-75501500D03*
%TO.P,U1,32*%
%TO.N,Net-(J4-Pad5)*%
X98742500Y-75501500D03*
%TO.P,U1,33*%
%TO.N,GND*%
X96202500Y-75501500D03*
%TO.P,U1,34*%
%TO.N,Net-(U1-Pad34)*%
X93662500Y-75501500D03*
%TO.P,U1,35*%
%TO.N,Net-(U1-Pad35)*%
X91122500Y-75501500D03*
%TO.P,U1,36*%
%TO.N,3V3*%
X88582500Y-75501500D03*
%TO.P,U1,37*%
%TO.N,Net-(U1-Pad37)*%
X86042500Y-75501500D03*
%TO.P,U1,38*%
%TO.N,GND*%
X83502500Y-75501500D03*
%TO.P,U1,39*%
%TO.N,VSYS*%
X80962500Y-75501500D03*
%TO.P,U1,40*%
%TO.N,VBUS*%
X78422500Y-75501500D03*
%TD*%
D12*
%TO.P,J4,7*%
%TO.N,VSYS*%
X149860000Y-63500000D03*
%TO.P,J4,6*%
%TO.N,GND*%
X147320000Y-63500000D03*
%TO.P,J4,5*%
%TO.N,Net-(J4-Pad5)*%
X144780000Y-63500000D03*
%TO.P,J4,9*%
%TO.N,Net-(J4-Pad9)*%
X154940000Y-63500000D03*
%TO.P,J4,8*%
%TO.N,Net-(J4-Pad8)*%
X152400000Y-63500000D03*
%TO.P,J4,4*%
%TO.N,Net-(J4-Pad4)*%
X142240000Y-63500000D03*
%TO.P,J4,3*%
%TO.N,Net-(J4-Pad3)*%
X139700000Y-63500000D03*
%TO.P,J4,2*%
%TO.N,Net-(J4-Pad2)*%
X137160000Y-63500000D03*
D13*
%TO.P,J4,1*%
%TO.N,Net-(J4-Pad1)*%
X134620000Y-63500000D03*
%TD*%
%TO.P,U2,1*%
%TO.N,Net-(U2-Pad1)*%
X162560000Y-83820000D03*
D12*
%TO.P,U2,2*%
%TO.N,Net-(U1-Pad4)*%
X162560000Y-86360000D03*
%TO.P,U2,3*%
%TO.N,Net-(U1-Pad5)*%
X162560000Y-88900000D03*
%TO.P,U2,4*%
%TO.N,GND*%
X162560000Y-91440000D03*
%TD*%
%TO.P,J5,7*%
%TO.N,VSYS*%
X154940000Y-91440000D03*
%TO.P,J5,6*%
%TO.N,GND*%
X154940000Y-88900000D03*
%TO.P,J5,5*%
%TO.N,Net-(J4-Pad5)*%
X154940000Y-86360000D03*
%TO.P,J5,9*%
%TO.N,Net-(J5-Pad9)*%
X154940000Y-96520000D03*
%TO.P,J5,8*%
%TO.N,Net-(J4-Pad8)*%
X154940000Y-93980000D03*
%TO.P,J5,4*%
%TO.N,Net-(J4-Pad4)*%
X154940000Y-83820000D03*
%TO.P,J5,3*%
%TO.N,Net-(J4-Pad3)*%
X154940000Y-81280000D03*
%TO.P,J5,2*%
%TO.N,Net-(J4-Pad2)*%
X154940000Y-78740000D03*
D13*
%TO.P,J5,1*%
%TO.N,Net-(J4-Pad1)*%
X154940000Y-76200000D03*
%TD*%
D12*
%TO.P,J2,7*%
%TO.N,GND*%
X149860000Y-109220000D03*
%TO.P,J2,6*%
%TO.N,Net-(J1-Pad6)*%
X147320000Y-109220000D03*
%TO.P,J2,5*%
%TO.N,Net-(J1-Pad5)*%
X144780000Y-109220000D03*
%TO.P,J2,9*%
%TO.N,Net-(J2-Pad9)*%
X154940000Y-109220000D03*
%TO.P,J2,8*%
%TO.N,VBUS*%
X152400000Y-109220000D03*
%TO.P,J2,4*%
%TO.N,Net-(J1-Pad4)*%
X142240000Y-109220000D03*
%TO.P,J2,3*%
%TO.N,Net-(J1-Pad3)*%
X139700000Y-109220000D03*
%TO.P,J2,2*%
%TO.N,Net-(J1-Pad2)*%
X137160000Y-109220000D03*
D13*
%TO.P,J2,1*%
%TO.N,Net-(J1-Pad1)*%
X134620000Y-109220000D03*
%TD*%
D12*
%TO.P,J1,7*%
%TO.N,GND*%
X132080000Y-91440000D03*
%TO.P,J1,6*%
%TO.N,Net-(J1-Pad6)*%
X132080000Y-88900000D03*
%TO.P,J1,5*%
%TO.N,Net-(J1-Pad5)*%
X132080000Y-86360000D03*
%TO.P,J1,9*%
%TO.N,Net-(J1-Pad9)*%
X132080000Y-96520000D03*
%TO.P,J1,8*%
%TO.N,VBUS*%
X132080000Y-93980000D03*
%TO.P,J1,4*%
%TO.N,Net-(J1-Pad4)*%
X132080000Y-83820000D03*
%TO.P,J1,3*%
%TO.N,Net-(J1-Pad3)*%
X132080000Y-81280000D03*
%TO.P,J1,2*%
%TO.N,Net-(J1-Pad2)*%
X132080000Y-78740000D03*
D13*
%TO.P,J1,1*%
%TO.N,Net-(J1-Pad1)*%
X132080000Y-76200000D03*
%TD*%
%TO.P,J3,1*%
%TO.N,VBUS*%
X78740000Y-62230000D03*
D12*
%TO.P,J3,2*%
%TO.N,VSYS*%
X81280000Y-62230000D03*
%TO.P,J3,3*%
%TO.N,GND*%
X83820000Y-62230000D03*
%TO.P,J3,4*%
%TO.N,3V3*%
X86360000Y-62230000D03*
%TD*%
D13*
%TO.P,J6,1*%
%TO.N,Net-(J6-Pad1)*%
X91440000Y-62230000D03*
D12*
%TO.P,J6,2*%
%TO.N,GND*%
X93980000Y-62230000D03*
%TO.P,J6,3*%
%TO.N,VSYS*%
X96520000Y-62230000D03*
%TO.P,J6,4*%
%TO.N,GND*%
X99060000Y-62230000D03*
%TD*%
D13*
%TO.P,U6,1*%
%TO.N,GND*%
X115570000Y-62230000D03*
D14*
%TO.P,U6,2*%
%TO.N,Net-(U1-Pad22)*%
X113030000Y-62230000D03*
%TO.P,U6,3*%
%TO.N,Net-(U1-Pad21)*%
X110490000Y-62230000D03*
D12*
%TO.P,U6,4*%
%TO.N,Net-(U6-Pad4)*%
X107950000Y-62230000D03*
D14*
%TO.P,U6,5*%
%TO.N,Net-(J4-Pad8)*%
X105410000Y-62230000D03*
%TD*%
D13*
%TO.P,U5,1*%
%TO.N,GND*%
X81280000Y-110363000D03*
D12*
%TO.P,U5,2*%
%TO.N,3V3*%
X83820000Y-110363000D03*
%TO.P,U5,3*%
%TO.N,Net-(U1-Pad14)*%
X86360000Y-110363000D03*
%TO.P,U5,4*%
%TO.N,Net-(U1-Pad15)*%
X88900000Y-110363000D03*
%TO.P,U5,5*%
%TO.N,Net-(U5-Pad5)*%
X91440000Y-110363000D03*
%TO.P,U5,6*%
%TO.N,Net-(U5-Pad6)*%
X93980000Y-110363000D03*
%TD*%
%TO.P,U3,6*%
%TO.N,Net-(U3-Pad6)*%
X102108000Y-110363000D03*
%TO.P,U3,5*%
%TO.N,Net-(U1-Pad11)*%
X104648000Y-110363000D03*
%TO.P,U3,4*%
%TO.N,Net-(U1-Pad12)*%
X107188000Y-110363000D03*
%TO.P,U3,3*%
%TO.N,Net-(U3-Pad3)*%
X109728000Y-110363000D03*
%TO.P,U3,2*%
%TO.N,Net-(U3-Pad2)*%
X112268000Y-110363000D03*
D13*
%TO.P,U3,1*%
%TO.N,GND*%
X114808000Y-110363000D03*
%TD*%
D15*
%TO.P,U7,1*%
%TO.N,GND*%
X125730000Y-62230000D03*
D16*
%TO.P,U7,3*%
%TO.N,Net-(J4-Pad8)*%
X123190000Y-62230000D03*
%TO.P,U7,2*%
%TO.N,VSYS*%
X124460000Y-62230000D03*
%TD*%
D17*
%TO.P,R5,2*%
%TO.N,Net-(R5-Pad2)*%
X104140000Y-69850000D03*
D18*
%TO.P,R5,1*%
%TO.N,VSYS*%
X101600000Y-69850000D03*
%TD*%
D17*
%TO.P,R3,2*%
%TO.N,Net-(R3-Pad2)*%
X104140000Y-99060000D03*
D18*
%TO.P,R3,1*%
%TO.N,Net-(D1-Pad1)*%
X101600000Y-99060000D03*
%TD*%
D17*
%TO.P,R2,2*%
%TO.N,Net-(R2-Pad2)*%
X98869500Y-99060000D03*
D18*
%TO.P,R2,1*%
%TO.N,Net-(D1-Pad2)*%
X96329500Y-99060000D03*
%TD*%
D17*
%TO.P,R1,2*%
%TO.N,Net-(R1-Pad2)*%
X93535500Y-99060000D03*
D18*
%TO.P,R1,1*%
%TO.N,Net-(D1-Pad4)*%
X90995500Y-99060000D03*
%TD*%
D19*
%TO.P,D1,4*%
%TO.N,Net-(D1-Pad4)*%
X110490000Y-99060000D03*
%TO.P,D1,3*%
%TO.N,3V3*%
X109220000Y-99060000D03*
%TO.P,D1,2*%
%TO.N,Net-(D1-Pad2)*%
X107950000Y-99060000D03*
D20*
%TO.P,D1,1*%
%TO.N,Net-(D1-Pad1)*%
X106680000Y-99060000D03*
%TD*%
D17*
%TO.P,R6,2*%
%TO.N,GND*%
X109347000Y-69850000D03*
D18*
%TO.P,R6,1*%
%TO.N,Net-(R5-Pad2)*%
X106807000Y-69850000D03*
%TD*%
D13*
%TO.P,U4,1*%
%TO.N,Net-(U2-Pad1)*%
X127000000Y-109220000D03*
D12*
%TO.P,U4,2*%
%TO.N,GND*%
X124460000Y-109220000D03*
D14*
%TO.P,U4,3*%
%TO.N,VSYS*%
X121920000Y-109220000D03*
%TD*%
D17*
%TO.P,R4,2*%
%TO.N,Net-(D2-Pad2)*%
X84264500Y-98298000D03*
D18*
%TO.P,R4,1*%
%TO.N,VSYS*%
X86804500Y-98298000D03*
%TD*%
D21*
%TO.P,D2,2*%
%TO.N,Net-(D2-Pad2)*%
X81915000Y-98234500D03*
D22*
%TO.P,D2,1*%
%TO.N,Net-(D2-Pad1)*%
X79375000Y-98234500D03*
%TD*%
D23*
%TO.N,VSYS*%
X82232500Y-96583500D03*
X76962000Y-96583500D03*
%TO.N,3V3*%
X88646000Y-68707000D03*
X88646000Y-78232000D03*
X88646000Y-88900000D03*
%TO.N,Net-(J1-Pad1)*%
X134683500Y-100012500D03*
%TO.N,VBUS*%
X154876500Y-104711500D03*
X140779500Y-104584500D03*
X85534500Y-103378000D03*
X88011000Y-103378000D03*
%TO.N,Net-(J1-Pad3)*%
X125285500Y-96647000D03*
%TO.N,Net-(J1-Pad2)*%
X128079500Y-98425000D03*
%TO.N,Net-(J4-Pad5)*%
X149098000Y-86360000D03*
X138557000Y-66103500D03*
X126936500Y-66103500D03*
X120713500Y-70485000D03*
X117729000Y-70485000D03*
X113792000Y-70485000D03*
X110109000Y-72644000D03*
X105346500Y-72644000D03*
%TO.N,Net-(J4-Pad4)*%
X152400000Y-69876500D03*
X155638500Y-66103500D03*
X128333500Y-65151000D03*
X119380000Y-74104500D03*
X125666500Y-72898000D03*
%TO.N,Net-(J4-Pad3)*%
X162623500Y-73406000D03*
X129603500Y-64325500D03*
X129540000Y-71056500D03*
X129540000Y-74295000D03*
X122555000Y-78740000D03*
X111506000Y-78676500D03*
%TO.N,Net-(J4-Pad2)*%
X151574500Y-80073500D03*
X137223500Y-74549000D03*
%TO.N,Net-(J4-Pad1)*%
X130873500Y-69215000D03*
%TO.N,Net-(J6-Pad1)*%
X91440000Y-68834000D03*
X91376500Y-72263000D03*
%TO.N,Net-(U1-Pad4)*%
X120459500Y-88773000D03*
X135218000Y-85217000D03*
X133477000Y-85090000D03*
X123380500Y-85090000D03*
X99885500Y-88810000D03*
X107569000Y-88810000D03*
X115252500Y-88746500D03*
X135255000Y-87630000D03*
X157797500Y-87566500D03*
%TO.N,Net-(U1-Pad5)*%
X100025200Y-90627200D03*
X107696000Y-90678000D03*
X115316000Y-90627200D03*
X120332500Y-90627200D03*
X122936000Y-106616500D03*
X120332500Y-104584500D03*
X120332500Y-100139500D03*
%TO.N,Net-(U1-Pad11)*%
X111950500Y-106299000D03*
%TO.N,Net-(U1-Pad12)*%
X105410000Y-99885500D03*
X105346500Y-102616000D03*
X115506500Y-104230000D03*
X115506500Y-107378500D03*
%TO.N,Net-(U1-Pad21)*%
X107950000Y-66484500D03*
X117856000Y-71691500D03*
%TO.N,Net-(U1-Pad22)*%
X119380000Y-63690500D03*
X119507000Y-66548000D03*
%TO.N,Net-(U2-Pad1)*%
X161798000Y-95250000D03*
%TD*%
D24*
%TO.N,Net-(D1-Pad2)*%
X107880990Y-99129010D02*
X107950000Y-99060000D01*
X107880990Y-101161010D02*
X107886500Y-99071020D01*
X96266000Y-101219000D02*
X107880990Y-101161010D01*
X96329500Y-99060000D02*
X96266000Y-101219000D01*
%TO.N,Net-(D1-Pad1)*%
X101600000Y-100647500D02*
X101600000Y-99060000D01*
X106616500Y-100647500D02*
X101600000Y-100647500D01*
X106680000Y-99060000D02*
X106616500Y-100647500D01*
%TO.N,VSYS*%
X154813000Y-91567000D02*
X154940000Y-91440000D01*
X149860000Y-91567000D02*
X154813000Y-91567000D01*
X149860000Y-91440000D02*
X149860000Y-91567000D01*
X149860000Y-63500000D02*
X149860000Y-91440000D01*
X96520000Y-62230000D02*
X96520000Y-69850000D01*
X101600000Y-69850000D02*
X96520000Y-69850000D01*
X86804500Y-96583500D02*
X82232500Y-96583500D01*
X86804500Y-96583500D02*
X86804500Y-98298000D01*
X149860000Y-105727500D02*
X149860000Y-91440000D01*
X86804500Y-105346500D02*
X149860000Y-105727500D01*
X86804500Y-98298000D02*
X86804500Y-105346500D01*
X96520000Y-69850000D02*
X84709000Y-69850000D01*
X101473000Y-69723000D02*
X101600000Y-69850000D01*
X124333000Y-62420500D02*
X124333000Y-65341500D01*
X124460000Y-62293500D02*
X124333000Y-62420500D01*
X124460000Y-62230000D02*
X124460000Y-62293500D01*
X101536500Y-69786500D02*
X101600000Y-69850000D01*
X101536500Y-65341500D02*
X101536500Y-69786500D01*
X124333000Y-65341500D02*
X101536500Y-65341500D01*
X121920000Y-109220000D02*
X121920000Y-105537000D01*
X84709000Y-66889312D02*
X81280000Y-62230000D01*
X84709000Y-72009000D02*
X84709000Y-66889312D01*
X81026000Y-75692000D02*
X84709000Y-72009000D01*
X81026000Y-78976202D02*
X81026000Y-75692000D01*
X76962000Y-83040202D02*
X81026000Y-78976202D01*
X76962000Y-96583500D02*
X76962000Y-83040202D01*
%TO.N,Net-(R2-Pad2)*%
X93726000Y-93472000D02*
X93726000Y-95250000D01*
X93726000Y-95250000D02*
X98869500Y-99060000D01*
%TO.N,3V3*%
X88646000Y-78232000D02*
X88646000Y-88900000D01*
X86360000Y-62230000D02*
X86360000Y-68580000D01*
X88519000Y-68580000D02*
X88646000Y-68707000D01*
X86360000Y-68580000D02*
X88519000Y-68580000D01*
%TO.N,Net-(D2-Pad2)*%
X84201000Y-98234500D02*
X84264500Y-98298000D01*
X81915000Y-98234500D02*
X84201000Y-98234500D01*
%TO.N,Net-(D2-Pad1)*%
X79375000Y-95885000D02*
X79375000Y-98234500D01*
X81026000Y-93472000D02*
X79375000Y-95885000D01*
%TO.N,Net-(R5-Pad2)*%
X104140000Y-69850000D02*
X106807000Y-69850000D01*
X101346000Y-72136000D02*
X101346000Y-75692000D01*
X104140000Y-72136000D02*
X101346000Y-72136000D01*
X104140000Y-69850000D02*
X104140000Y-72136000D01*
%TO.N,Net-(D1-Pad4)*%
X110490000Y-101727000D02*
X110490000Y-99060000D01*
X90995500Y-101790500D02*
X110490000Y-101727000D01*
X90995500Y-99060000D02*
X90995500Y-101790500D01*
%TO.N,Net-(J1-Pad1)*%
X128368199Y-79911801D02*
X132080000Y-76200000D01*
X124996801Y-79911801D02*
X128368199Y-79911801D01*
X122872500Y-77787500D02*
X124996801Y-79911801D01*
X101346000Y-77787500D02*
X122872500Y-77787500D01*
X101346000Y-93472000D02*
X101346000Y-77787500D01*
X136207500Y-100012500D02*
X134683500Y-100012500D01*
X136207500Y-76200000D02*
X136207500Y-100012500D01*
X132080000Y-76200000D02*
X136207500Y-76200000D01*
%TO.N,Net-(R1-Pad2)*%
X93535500Y-99060000D02*
X93980000Y-99060000D01*
X91186000Y-95377000D02*
X93535500Y-99060000D01*
X91186000Y-93472000D02*
X91186000Y-95377000D01*
%TO.N,Net-(R3-Pad2)*%
X98742500Y-93281500D02*
X104140000Y-99060000D01*
X98806000Y-93472000D02*
X98742500Y-93281500D01*
%TO.N,Net-(J1-Pad5)*%
X131699000Y-86741000D02*
X132080000Y-86360000D01*
X128397000Y-86741000D02*
X131699000Y-86741000D01*
X128397000Y-93472000D02*
X128397000Y-86741000D01*
X126746000Y-93472000D02*
X128397000Y-93472000D01*
%TO.N,VBUS*%
X152400000Y-109220000D02*
X152400000Y-107124500D01*
X152400000Y-107124500D02*
X154876500Y-107124500D01*
X154876500Y-107124500D02*
X154876500Y-104775000D01*
X129540000Y-93980000D02*
X129540000Y-104648000D01*
X132080000Y-93980000D02*
X129540000Y-93980000D01*
X111850001Y-103341001D02*
X88011000Y-103378000D01*
X121412000Y-104648000D02*
X129540000Y-104648000D01*
X121412000Y-99187000D02*
X121412000Y-104648000D01*
X117284500Y-99187000D02*
X121412000Y-99187000D01*
X117284500Y-104965500D02*
X117284500Y-99187000D01*
X111887000Y-104965500D02*
X117284500Y-104965500D01*
X111860500Y-103351500D02*
X111887000Y-104965500D01*
X76835000Y-75628500D02*
X76771500Y-62166500D01*
X78486000Y-75692000D02*
X76835000Y-75628500D01*
X76236999Y-77941001D02*
X78486000Y-75692000D01*
X76236999Y-98370501D02*
X76236999Y-77941001D01*
X76200000Y-102108000D02*
X76236999Y-98370501D01*
X76263500Y-107950000D02*
X76200000Y-102108000D01*
X85534500Y-107950000D02*
X76263500Y-107950000D01*
X85534500Y-103378000D02*
X85534500Y-107950000D01*
X78676500Y-62166500D02*
X78740000Y-62230000D01*
X76771500Y-62166500D02*
X78676500Y-62166500D01*
X129540000Y-104648000D02*
X140779500Y-104584500D01*
%TO.N,Net-(J1-Pad4)*%
X124206000Y-93472000D02*
X124206000Y-83820000D01*
X124206000Y-83820000D02*
X132080000Y-83820000D01*
%TO.N,Net-(J1-Pad3)*%
X125285500Y-96647000D02*
X119062500Y-96647000D01*
X119062500Y-96647000D02*
X119062500Y-93281500D01*
X119126000Y-81216500D02*
X132080000Y-81280000D01*
X119126000Y-93472000D02*
X119126000Y-81216500D01*
%TO.N,Net-(J1-Pad2)*%
X116586000Y-93472000D02*
X116586000Y-80518000D01*
X116586000Y-98361500D02*
X116586000Y-93472000D01*
X128079500Y-98425000D02*
X116586000Y-98361500D01*
X130302000Y-80518000D02*
X132080000Y-78740000D01*
X116586000Y-80518000D02*
X130302000Y-80518000D01*
%TO.N,Net-(J4-Pad5)*%
X144780000Y-63500000D02*
X144780000Y-66103500D01*
X144780000Y-66103500D02*
X149071500Y-66103500D01*
X149071500Y-86333500D02*
X149098000Y-86360000D01*
X149071500Y-66103500D02*
X149071500Y-86333500D01*
X144780000Y-66103500D02*
X138557000Y-66103500D01*
X126936500Y-66103500D02*
X126936500Y-70485000D01*
X126936500Y-70485000D02*
X120713500Y-70485000D01*
X117729000Y-70485000D02*
X113792000Y-70485000D01*
X110109000Y-72644000D02*
X105346500Y-72644000D01*
%TO.N,Net-(J4-Pad4)*%
X152400000Y-69876500D02*
X155675500Y-69876500D01*
X128333500Y-65151000D02*
X128333500Y-72898000D01*
X125666500Y-72898000D02*
X128333500Y-72898000D01*
X106426000Y-74104500D02*
X119380000Y-74104500D01*
X106426000Y-75692000D02*
X106426000Y-74104500D01*
X155675500Y-69876500D02*
X155638500Y-66103500D01*
%TO.N,Net-(J4-Pad3)*%
X129603500Y-70993000D02*
X129540000Y-71056500D01*
X129603500Y-64325500D02*
X129603500Y-70993000D01*
X129540000Y-71056500D02*
X129540000Y-74295000D01*
X111569500Y-78740000D02*
X111506000Y-78676500D01*
X122555000Y-78740000D02*
X111569500Y-78740000D01*
X162560000Y-81280000D02*
X162623500Y-73406000D01*
X154940000Y-81280000D02*
X162560000Y-81280000D01*
%TO.N,Net-(J4-Pad2)*%
X137223500Y-74549000D02*
X137160000Y-63500000D01*
X114046000Y-76779001D02*
X114046000Y-75692000D01*
X128706999Y-76779001D02*
X114046000Y-76779001D01*
X137160000Y-69151500D02*
X128706999Y-76779001D01*
X154940000Y-78740000D02*
X151574500Y-80073500D01*
%TO.N,Net-(J4-Pad1)*%
X134556500Y-63563500D02*
X134620000Y-63500000D01*
X134493000Y-69215000D02*
X134556500Y-63563500D01*
X130873500Y-69215000D02*
X134493000Y-69215000D01*
%TO.N,Net-(J6-Pad1)*%
X81788000Y-90170000D02*
X78486000Y-93472000D01*
X89733001Y-73715999D02*
X89733001Y-90114001D01*
X89733001Y-90114001D02*
X81788000Y-90170000D01*
X91376500Y-72263000D02*
X89733001Y-73715999D01*
X91440000Y-62230000D02*
X91440000Y-68834000D01*
%TO.N,Net-(J4-Pad8)*%
X105410000Y-62230000D02*
X105410000Y-64770000D01*
X105410000Y-64770000D02*
X123190000Y-64770000D01*
X123190000Y-62230000D02*
X123190000Y-64770000D01*
X152400000Y-68707000D02*
X150495000Y-68707000D01*
X152400000Y-63500000D02*
X152400000Y-68707000D01*
X150495000Y-68707000D02*
X150495000Y-90233500D01*
X156115001Y-92804999D02*
X154940000Y-93980000D01*
X156115001Y-90875999D02*
X156115001Y-92804999D01*
X155504001Y-90264999D02*
X156115001Y-90875999D01*
X150495000Y-90233500D02*
X155504001Y-90264999D01*
X123190000Y-61230000D02*
X123190000Y-62230000D01*
X123265010Y-61154990D02*
X123190000Y-61230000D01*
X152340990Y-61154990D02*
X123265010Y-61154990D01*
X152400000Y-63500000D02*
X152340990Y-61154990D01*
%TO.N,Net-(U1-Pad4)*%
X133604000Y-85217000D02*
X133477000Y-85090000D01*
X135218000Y-85217000D02*
X133604000Y-85217000D01*
X115189000Y-88810000D02*
X115252500Y-88746500D01*
X107569000Y-88810000D02*
X115189000Y-88810000D01*
X135218000Y-87593000D02*
X135255000Y-87630000D01*
X135218000Y-85217000D02*
X135218000Y-87593000D01*
X161353500Y-87566500D02*
X162560000Y-86360000D01*
X157797500Y-87566500D02*
X161353500Y-87566500D01*
X123380500Y-88773000D02*
X123380500Y-85090000D01*
X120459500Y-88773000D02*
X123380500Y-88773000D01*
X92100090Y-88810000D02*
X99885500Y-88810000D01*
X89535000Y-91440000D02*
X92100090Y-88810000D01*
X86042500Y-91440000D02*
X89535000Y-91440000D01*
X86106000Y-93472000D02*
X86042500Y-91440000D01*
%TO.N,Net-(U1-Pad5)*%
X88646000Y-93472000D02*
X91541600Y-90576400D01*
X99974400Y-90576400D02*
X100025200Y-90627200D01*
X91541600Y-90576400D02*
X99974400Y-90576400D01*
X115265200Y-90678000D02*
X115316000Y-90627200D01*
X107696000Y-90678000D02*
X115265200Y-90678000D01*
X162560000Y-88900000D02*
X159766000Y-88900000D01*
X120332500Y-104711500D02*
X120332500Y-100139500D01*
X151320500Y-106616500D02*
X154305000Y-100393500D01*
X122936000Y-106616500D02*
X151320500Y-106616500D01*
X159766000Y-97917000D02*
X157289500Y-100393500D01*
X159766000Y-88900000D02*
X159766000Y-97917000D01*
X157289500Y-100393500D02*
X157416500Y-100393500D01*
X154305000Y-100393500D02*
X157289500Y-100393500D01*
%TO.N,Net-(U1-Pad11)*%
X111950500Y-106299000D02*
X104648000Y-106299000D01*
X104648000Y-106299000D02*
X104648000Y-110363000D01*
%TO.N,Net-(U1-Pad12)*%
X105346500Y-102616000D02*
X115570000Y-102616000D01*
X115570000Y-104166500D02*
X115506500Y-104230000D01*
X115570000Y-102616000D02*
X115570000Y-104166500D01*
X115506500Y-107378500D02*
X107188000Y-107378500D01*
X107188000Y-107378500D02*
X107188000Y-110363000D01*
X105410000Y-95250000D02*
X105410000Y-99885500D01*
X106426000Y-93472000D02*
X105410000Y-95250000D01*
%TO.N,Net-(U1-Pad21)*%
X117792500Y-71755000D02*
X117856000Y-71691500D01*
X111823500Y-71755000D02*
X117792500Y-71755000D01*
X111823500Y-66548000D02*
X111823500Y-71755000D01*
X108013500Y-66548000D02*
X107950000Y-66484500D01*
X111823500Y-66548000D02*
X108013500Y-66548000D01*
%TO.N,Net-(U1-Pad22)*%
X113030000Y-62230000D02*
X113030000Y-61023500D01*
X113030000Y-61023500D02*
X119443500Y-61023500D01*
X119443500Y-63627000D02*
X119380000Y-63690500D01*
X119443500Y-61023500D02*
X119443500Y-63627000D01*
X124269500Y-75628500D02*
X124206000Y-75692000D01*
X124269500Y-72898000D02*
X124269500Y-75628500D01*
X119380000Y-72898000D02*
X124269500Y-72898000D01*
X119507000Y-66548000D02*
X119380000Y-72898000D01*
%TO.N,Net-(U2-Pad1)*%
X163830000Y-108204000D02*
X163830000Y-95250000D01*
X160909000Y-111125000D02*
X163830000Y-108204000D01*
X127000000Y-111125000D02*
X160909000Y-111125000D01*
X127000000Y-109220000D02*
X127000000Y-111125000D01*
X163830000Y-95250000D02*
X161798000Y-95250000D01*
%TD*%
M02*
