M48
; DRILL file {KiCad (5.1.10)-1} date 01/16/26 07:53:06
; FORMAT={-:-/ absolute / inch / decimal}
; #@! TF.CreationDate,2026-01-16T07:53:06-07:00
; #@! TF.GenerationSoftware,Kicad,Pcbnew,(5.1.10)-1
; #@! TF.FileFunction,Plated,1,2,PTH
FMAT,2
INCH
T1C0.0157
T2C0.0295
T3C0.0315
T4C0.0354
T5C0.0394
%
G90
G05
T1
X3.03Y-3.8025
X3.2375Y-3.8025
X3.3675Y-4.07
X3.465Y-4.07
X3.49Y-2.705
X3.49Y-3.08
X3.49Y-3.5
X3.5975Y-2.845
X3.6Y-2.7325
X3.9325Y-3.4965
X3.938Y-3.568
X4.1475Y-2.86
X4.1475Y-4.04
X4.15Y-3.9325
X4.235Y-3.4965
X4.24Y-3.57
X4.25Y-2.6125
X4.335Y-2.86
X4.39Y-3.0975
X4.4075Y-4.185
X4.48Y-2.775
X4.5375Y-3.494
X4.54Y-3.568
X4.5775Y-4.04
X4.58Y-4.2275
X4.635Y-2.775
X4.64Y-2.8225
X4.7Y-2.5075
X4.7Y-2.6025
X4.7Y-2.9175
X4.7375Y-3.568
X4.7375Y-3.9725
X4.7375Y-4.1175
X4.7425Y-3.495
X4.7525Y-2.775
X4.825Y-3.1
X4.84Y-4.1975
X4.8575Y-3.35
X4.9325Y-3.805
X4.9475Y-2.87
X4.9975Y-2.6025
X5.0425Y-3.875
X5.0525Y-2.565
X5.1Y-2.7975
X5.1Y-2.925
X5.1025Y-2.5325
X5.1525Y-2.725
X5.255Y-3.35
X5.3025Y-3.9375
X5.3235Y-3.355
X5.325Y-3.45
X5.4025Y-2.935
X5.455Y-2.6025
X5.5425Y-4.1175
X5.87Y-3.3775
X5.9675Y-3.15
X6.0Y-2.751
X6.055Y-4.0175
X6.055Y-4.17
X6.0725Y-2.6025
X6.0975Y-4.1225
X6.2125Y-3.4475
X6.4525Y-2.925
T2
X4.8475Y-2.4675
X4.8975Y-2.4675
X4.9475Y-2.4675
T3
X3.3175Y-3.87
X3.4175Y-3.87
X3.5825Y-3.9
X3.6825Y-3.9
X3.7925Y-3.9
X3.8925Y-3.9
X4.0Y-2.75
X4.0Y-3.9
X4.1Y-2.75
X4.1Y-3.9
X4.205Y-2.75
X4.305Y-2.75
T4
X3.125Y-3.8675
X3.225Y-3.8675
X4.2Y-3.9
X4.25Y-3.9
X4.3Y-3.9
X4.35Y-3.9
T5
X3.0875Y-2.9725
X3.0875Y-3.6725
X3.1Y-2.45
X3.1875Y-2.9725
X3.1875Y-3.6725
X3.2Y-2.45
X3.2Y-4.345
X3.2875Y-2.9725
X3.2875Y-3.6725
X3.3Y-2.45
X3.3Y-4.345
X3.3875Y-2.9725
X3.3875Y-3.6725
X3.4Y-2.45
X3.4Y-4.345
X3.4875Y-2.9725
X3.4875Y-3.6725
X3.5Y-4.345
X3.5875Y-2.9725
X3.5875Y-3.6725
X3.6Y-2.45
X3.6Y-4.345
X3.6875Y-2.9725
X3.6875Y-3.6725
X3.7Y-2.45
X3.7Y-4.345
X3.7875Y-2.9725
X3.7875Y-3.6725
X3.8Y-2.45
X3.8875Y-2.9725
X3.8875Y-3.6725
X3.9Y-2.45
X3.9875Y-2.9725
X3.9875Y-3.6725
X4.02Y-4.345
X4.0875Y-2.9725
X4.0875Y-3.6725
X4.12Y-4.345
X4.15Y-2.45
X4.1875Y-2.9725
X4.1875Y-3.6725
X4.22Y-4.345
X4.25Y-2.45
X4.2875Y-2.9725
X4.2875Y-3.6725
X4.32Y-4.345
X4.35Y-2.45
X4.3875Y-2.9725
X4.3875Y-3.6725
X4.42Y-4.345
X4.45Y-2.45
X4.4875Y-2.9725
X4.4875Y-3.6725
X4.52Y-4.345
X4.55Y-2.45
X4.5875Y-2.9725
X4.5875Y-3.6725
X4.6875Y-2.9725
X4.6875Y-3.6725
X4.7875Y-2.9725
X4.7875Y-3.6725
X4.8Y-4.3
X4.8875Y-2.9725
X4.8875Y-3.6725
X4.9Y-4.3
X4.9875Y-2.9725
X4.9875Y-3.6725
X5.0Y-4.3
X5.2Y-3.0
X5.2Y-3.1
X5.2Y-3.2
X5.2Y-3.3
X5.2Y-3.4
X5.2Y-3.5
X5.2Y-3.6
X5.2Y-3.7
X5.2Y-3.8
X5.3Y-2.5
X5.3Y-4.3
X5.4Y-2.5
X5.4Y-4.3
X5.5Y-2.5
X5.5Y-2.8
X5.5Y-2.9
X5.5Y-3.0
X5.5Y-3.1
X5.5Y-3.2
X5.5Y-3.3
X5.5Y-3.4
X5.5Y-3.5
X5.5Y-3.6
X5.5Y-3.7
X5.5Y-3.8
X5.5Y-3.9
X5.5Y-4.0
X5.5Y-4.3
X5.6Y-2.5
X5.6Y-2.8
X5.6Y-2.9
X5.6Y-3.0
X5.6Y-3.1
X5.6Y-3.2
X5.6Y-3.3
X5.6Y-3.4
X5.6Y-3.5
X5.6Y-3.6
X5.6Y-3.7
X5.6Y-3.8
X5.6Y-3.9
X5.6Y-4.0
X5.6Y-4.3
X5.7Y-2.5
X5.7Y-2.8
X5.7Y-2.9
X5.7Y-3.0
X5.7Y-3.1
X5.7Y-3.2
X5.7Y-3.3
X5.7Y-3.4
X5.7Y-3.5
X5.7Y-3.6
X5.7Y-3.7
X5.7Y-3.8
X5.7Y-3.9
X5.7Y-4.0
X5.7Y-4.3
X5.8Y-2.5
X5.8Y-2.8
X5.8Y-2.9
X5.8Y-3.0
X5.8Y-3.1
X5.8Y-3.2
X5.8Y-3.3
X5.8Y-3.4
X5.8Y-3.5
X5.8Y-3.6
X5.8Y-3.7
X5.8Y-3.8
X5.8Y-3.9
X5.8Y-4.0
X5.8Y-4.3
X5.9Y-2.5
X5.9Y-4.3
X6.0Y-2.5
X6.0Y-4.3
X6.1Y-2.5
X6.1Y-3.0
X6.1Y-3.1
X6.1Y-3.2
X6.1Y-3.3
X6.1Y-3.4
X6.1Y-3.5
X6.1Y-3.6
X6.1Y-3.7
X6.1Y-3.8
X6.1Y-4.3
X6.4Y-3.3
X6.4Y-3.4
X6.4Y-3.5
X6.4Y-3.6
T0
M30
