%TF.GenerationSoftware,KiCad,Pcbnew,(5.1.10)-1*%
%TF.CreationDate,2026-01-05T08:00:15-07:00*%
%TF.ProjectId,pico_switch,7069636f-5f73-4776-9974-63682e6b6963,rev?*%
%TF.SameCoordinates,Original*%
%TF.FileFunction,Legend,Top*%
%TF.FilePolarity,Positive*%
%FSLAX46Y46*%
G04 Gerber Fmt 4.6, Leading zero omitted, Abs format (unit mm)*
G04 Created by KiCad (PCBNEW (5.1.10)-1) date 2026-01-05 08:00:15*
%MOMM*%
%LPD*%
G01*
G04 APERTURE LIST*
%ADD10C,0.150000*%
%ADD11C,0.120000*%
G04 APERTURE END LIST*
D10*
X148939476Y-102560333D02*
X148891857Y-102512714D01*
X148796619Y-102369857D01*
X148749000Y-102274619D01*
X148701380Y-102131761D01*
X148653761Y-101893666D01*
X148653761Y-101703190D01*
X148701380Y-101465095D01*
X148749000Y-101322238D01*
X148796619Y-101227000D01*
X148891857Y-101084142D01*
X148939476Y-101036523D01*
X149749000Y-101512714D02*
X149749000Y-102179380D01*
X149510904Y-101131761D02*
X149272809Y-101846047D01*
X149891857Y-101846047D01*
X150320428Y-102131761D02*
X150320428Y-102179380D01*
X150272809Y-102274619D01*
X150225190Y-102322238D01*
X151272809Y-102179380D02*
X150701380Y-102179380D01*
X150987095Y-102179380D02*
X150987095Y-101179380D01*
X150891857Y-101322238D01*
X150796619Y-101417476D01*
X150701380Y-101465095D01*
X151606142Y-101179380D02*
X152225190Y-101179380D01*
X151891857Y-101560333D01*
X152034714Y-101560333D01*
X152129952Y-101607952D01*
X152177571Y-101655571D01*
X152225190Y-101750809D01*
X152225190Y-101988904D01*
X152177571Y-102084142D01*
X152129952Y-102131761D01*
X152034714Y-102179380D01*
X151749000Y-102179380D01*
X151653761Y-102131761D01*
X151606142Y-102084142D01*
X152558523Y-102560333D02*
X152606142Y-102512714D01*
X152701380Y-102369857D01*
X152749000Y-102274619D01*
X152796619Y-102131761D01*
X152844238Y-101893666D01*
X152844238Y-101703190D01*
X152796619Y-101465095D01*
X152749000Y-101322238D01*
X152701380Y-101227000D01*
X152606142Y-101084142D01*
X152558523Y-101036523D01*
X134461476Y-102306333D02*
X134413857Y-102258714D01*
X134318619Y-102115857D01*
X134271000Y-102020619D01*
X134223380Y-101877761D01*
X134175761Y-101639666D01*
X134175761Y-101449190D01*
X134223380Y-101211095D01*
X134271000Y-101068238D01*
X134318619Y-100973000D01*
X134413857Y-100830142D01*
X134461476Y-100782523D01*
X135366238Y-101925380D02*
X134794809Y-101925380D01*
X135080523Y-101925380D02*
X135080523Y-100925380D01*
X134985285Y-101068238D01*
X134890047Y-101163476D01*
X134794809Y-101211095D01*
X135699571Y-100925380D02*
X136318619Y-100925380D01*
X135985285Y-101306333D01*
X136128142Y-101306333D01*
X136223380Y-101353952D01*
X136271000Y-101401571D01*
X136318619Y-101496809D01*
X136318619Y-101734904D01*
X136271000Y-101830142D01*
X136223380Y-101877761D01*
X136128142Y-101925380D01*
X135842428Y-101925380D01*
X135747190Y-101877761D01*
X135699571Y-101830142D01*
X136794809Y-101877761D02*
X136794809Y-101925380D01*
X136747190Y-102020619D01*
X136699571Y-102068238D01*
X137747190Y-101925380D02*
X137175761Y-101925380D01*
X137461476Y-101925380D02*
X137461476Y-100925380D01*
X137366238Y-101068238D01*
X137271000Y-101163476D01*
X137175761Y-101211095D01*
X138080523Y-102306333D02*
X138128142Y-102258714D01*
X138223380Y-102115857D01*
X138271000Y-102020619D01*
X138318619Y-101877761D01*
X138366238Y-101639666D01*
X138366238Y-101449190D01*
X138318619Y-101211095D01*
X138271000Y-101068238D01*
X138223380Y-100973000D01*
X138128142Y-100830142D01*
X138080523Y-100782523D01*
X149034666Y-71826333D02*
X148987047Y-71778714D01*
X148891809Y-71635857D01*
X148844190Y-71540619D01*
X148796571Y-71397761D01*
X148748952Y-71159666D01*
X148748952Y-70969190D01*
X148796571Y-70731095D01*
X148844190Y-70588238D01*
X148891809Y-70493000D01*
X148987047Y-70350142D01*
X149034666Y-70302523D01*
X149939428Y-71445380D02*
X149368000Y-71445380D01*
X149653714Y-71445380D02*
X149653714Y-70445380D01*
X149558476Y-70588238D01*
X149463238Y-70683476D01*
X149368000Y-70731095D01*
X150415619Y-71397761D02*
X150415619Y-71445380D01*
X150368000Y-71540619D01*
X150320380Y-71588238D01*
X151272761Y-70778714D02*
X151272761Y-71445380D01*
X151034666Y-70397761D02*
X150796571Y-71112047D01*
X151415619Y-71112047D01*
X151701333Y-71826333D02*
X151748952Y-71778714D01*
X151844190Y-71635857D01*
X151891809Y-71540619D01*
X151939428Y-71397761D01*
X151987047Y-71159666D01*
X151987047Y-70969190D01*
X151939428Y-70731095D01*
X151891809Y-70588238D01*
X151844190Y-70493000D01*
X151748952Y-70350142D01*
X151701333Y-70302523D01*
X135382166Y-72080333D02*
X135334547Y-72032714D01*
X135239309Y-71889857D01*
X135191690Y-71794619D01*
X135144071Y-71651761D01*
X135096452Y-71413666D01*
X135096452Y-71223190D01*
X135144071Y-70985095D01*
X135191690Y-70842238D01*
X135239309Y-70747000D01*
X135334547Y-70604142D01*
X135382166Y-70556523D01*
X136286928Y-71699380D02*
X135715500Y-71699380D01*
X136001214Y-71699380D02*
X136001214Y-70699380D01*
X135905976Y-70842238D01*
X135810738Y-70937476D01*
X135715500Y-70985095D01*
X136763119Y-71651761D02*
X136763119Y-71699380D01*
X136715500Y-71794619D01*
X136667880Y-71842238D01*
X137715500Y-71699380D02*
X137144071Y-71699380D01*
X137429785Y-71699380D02*
X137429785Y-70699380D01*
X137334547Y-70842238D01*
X137239309Y-70937476D01*
X137144071Y-70985095D01*
X138048833Y-72080333D02*
X138096452Y-72032714D01*
X138191690Y-71889857D01*
X138239309Y-71794619D01*
X138286928Y-71651761D01*
X138334547Y-71413666D01*
X138334547Y-71223190D01*
X138286928Y-70985095D01*
X138239309Y-70842238D01*
X138191690Y-70747000D01*
X138096452Y-70604142D01*
X138048833Y-70556523D01*
X150257023Y-86876000D02*
X150161785Y-86828380D01*
X150018928Y-86828380D01*
X149876071Y-86876000D01*
X149780833Y-86971238D01*
X149733214Y-87066476D01*
X149685595Y-87256952D01*
X149685595Y-87399809D01*
X149733214Y-87590285D01*
X149780833Y-87685523D01*
X149876071Y-87780761D01*
X150018928Y-87828380D01*
X150114166Y-87828380D01*
X150257023Y-87780761D01*
X150304642Y-87733142D01*
X150304642Y-87399809D01*
X150114166Y-87399809D01*
X150733214Y-87828380D02*
X150733214Y-86828380D01*
X151114166Y-86828380D01*
X151209404Y-86876000D01*
X151257023Y-86923619D01*
X151304642Y-87018857D01*
X151304642Y-87161714D01*
X151257023Y-87256952D01*
X151209404Y-87304571D01*
X151114166Y-87352190D01*
X150733214Y-87352190D01*
X151685595Y-86923619D02*
X151733214Y-86876000D01*
X151828452Y-86828380D01*
X152066547Y-86828380D01*
X152161785Y-86876000D01*
X152209404Y-86923619D01*
X152257023Y-87018857D01*
X152257023Y-87114095D01*
X152209404Y-87256952D01*
X151637976Y-87828380D01*
X152257023Y-87828380D01*
X152590357Y-86828380D02*
X153257023Y-86828380D01*
X152828452Y-87828380D01*
X149939523Y-81161000D02*
X149844285Y-81113380D01*
X149701428Y-81113380D01*
X149558571Y-81161000D01*
X149463333Y-81256238D01*
X149415714Y-81351476D01*
X149368095Y-81541952D01*
X149368095Y-81684809D01*
X149415714Y-81875285D01*
X149463333Y-81970523D01*
X149558571Y-82065761D01*
X149701428Y-82113380D01*
X149796666Y-82113380D01*
X149939523Y-82065761D01*
X149987142Y-82018142D01*
X149987142Y-81684809D01*
X149796666Y-81684809D01*
X150415714Y-82113380D02*
X150415714Y-81113380D01*
X150796666Y-81113380D01*
X150891904Y-81161000D01*
X150939523Y-81208619D01*
X150987142Y-81303857D01*
X150987142Y-81446714D01*
X150939523Y-81541952D01*
X150891904Y-81589571D01*
X150796666Y-81637190D01*
X150415714Y-81637190D01*
X151368095Y-81208619D02*
X151415714Y-81161000D01*
X151510952Y-81113380D01*
X151749047Y-81113380D01*
X151844285Y-81161000D01*
X151891904Y-81208619D01*
X151939523Y-81303857D01*
X151939523Y-81399095D01*
X151891904Y-81541952D01*
X151320476Y-82113380D01*
X151939523Y-82113380D01*
X152891904Y-82113380D02*
X152320476Y-82113380D01*
X152606190Y-82113380D02*
X152606190Y-81113380D01*
X152510952Y-81256238D01*
X152415714Y-81351476D01*
X152320476Y-81399095D01*
X149812523Y-83701000D02*
X149717285Y-83653380D01*
X149574428Y-83653380D01*
X149431571Y-83701000D01*
X149336333Y-83796238D01*
X149288714Y-83891476D01*
X149241095Y-84081952D01*
X149241095Y-84224809D01*
X149288714Y-84415285D01*
X149336333Y-84510523D01*
X149431571Y-84605761D01*
X149574428Y-84653380D01*
X149669666Y-84653380D01*
X149812523Y-84605761D01*
X149860142Y-84558142D01*
X149860142Y-84224809D01*
X149669666Y-84224809D01*
X150288714Y-84653380D02*
X150288714Y-83653380D01*
X150669666Y-83653380D01*
X150764904Y-83701000D01*
X150812523Y-83748619D01*
X150860142Y-83843857D01*
X150860142Y-83986714D01*
X150812523Y-84081952D01*
X150764904Y-84129571D01*
X150669666Y-84177190D01*
X150288714Y-84177190D01*
X151241095Y-83748619D02*
X151288714Y-83701000D01*
X151383952Y-83653380D01*
X151622047Y-83653380D01*
X151717285Y-83701000D01*
X151764904Y-83748619D01*
X151812523Y-83843857D01*
X151812523Y-83939095D01*
X151764904Y-84081952D01*
X151193476Y-84653380D01*
X151812523Y-84653380D01*
X152193476Y-83748619D02*
X152241095Y-83701000D01*
X152336333Y-83653380D01*
X152574428Y-83653380D01*
X152669666Y-83701000D01*
X152717285Y-83748619D01*
X152764904Y-83843857D01*
X152764904Y-83939095D01*
X152717285Y-84081952D01*
X152145857Y-84653380D01*
X152764904Y-84653380D01*
X149312523Y-93940380D02*
X149931571Y-93940380D01*
X149598238Y-94321333D01*
X149741095Y-94321333D01*
X149836333Y-94368952D01*
X149883952Y-94416571D01*
X149931571Y-94511809D01*
X149931571Y-94749904D01*
X149883952Y-94845142D01*
X149836333Y-94892761D01*
X149741095Y-94940380D01*
X149455380Y-94940380D01*
X149360142Y-94892761D01*
X149312523Y-94845142D01*
X150264904Y-94273714D02*
X150503000Y-94940380D01*
X150741095Y-94273714D01*
X151026809Y-93940380D02*
X151645857Y-93940380D01*
X151312523Y-94321333D01*
X151455380Y-94321333D01*
X151550619Y-94368952D01*
X151598238Y-94416571D01*
X151645857Y-94511809D01*
X151645857Y-94749904D01*
X151598238Y-94845142D01*
X151550619Y-94892761D01*
X151455380Y-94940380D01*
X151169666Y-94940380D01*
X151074428Y-94892761D01*
X151026809Y-94845142D01*
X152645857Y-94940380D02*
X152312523Y-94464190D01*
X152074428Y-94940380D02*
X152074428Y-93940380D01*
X152455380Y-93940380D01*
X152550619Y-93988000D01*
X152598238Y-94035619D01*
X152645857Y-94130857D01*
X152645857Y-94273714D01*
X152598238Y-94368952D01*
X152550619Y-94416571D01*
X152455380Y-94464190D01*
X152074428Y-94464190D01*
X149288714Y-91654380D02*
X149622047Y-92654380D01*
X149955380Y-91654380D01*
X150241095Y-92606761D02*
X150383952Y-92654380D01*
X150622047Y-92654380D01*
X150717285Y-92606761D01*
X150764904Y-92559142D01*
X150812523Y-92463904D01*
X150812523Y-92368666D01*
X150764904Y-92273428D01*
X150717285Y-92225809D01*
X150622047Y-92178190D01*
X150431571Y-92130571D01*
X150336333Y-92082952D01*
X150288714Y-92035333D01*
X150241095Y-91940095D01*
X150241095Y-91844857D01*
X150288714Y-91749619D01*
X150336333Y-91702000D01*
X150431571Y-91654380D01*
X150669666Y-91654380D01*
X150812523Y-91702000D01*
X151431571Y-92178190D02*
X151431571Y-92654380D01*
X151098238Y-91654380D02*
X151431571Y-92178190D01*
X151764904Y-91654380D01*
X152050619Y-92606761D02*
X152193476Y-92654380D01*
X152431571Y-92654380D01*
X152526809Y-92606761D01*
X152574428Y-92559142D01*
X152622047Y-92463904D01*
X152622047Y-92368666D01*
X152574428Y-92273428D01*
X152526809Y-92225809D01*
X152431571Y-92178190D01*
X152241095Y-92130571D01*
X152145857Y-92082952D01*
X152098238Y-92035333D01*
X152050619Y-91940095D01*
X152050619Y-91844857D01*
X152098238Y-91749619D01*
X152145857Y-91702000D01*
X152241095Y-91654380D01*
X152479190Y-91654380D01*
X152622047Y-91702000D01*
X149685523Y-76208000D02*
X149590285Y-76160380D01*
X149447428Y-76160380D01*
X149304571Y-76208000D01*
X149209333Y-76303238D01*
X149161714Y-76398476D01*
X149114095Y-76588952D01*
X149114095Y-76731809D01*
X149161714Y-76922285D01*
X149209333Y-77017523D01*
X149304571Y-77112761D01*
X149447428Y-77160380D01*
X149542666Y-77160380D01*
X149685523Y-77112761D01*
X149733142Y-77065142D01*
X149733142Y-76731809D01*
X149542666Y-76731809D01*
X150161714Y-77160380D02*
X150161714Y-76160380D01*
X150542666Y-76160380D01*
X150637904Y-76208000D01*
X150685523Y-76255619D01*
X150733142Y-76350857D01*
X150733142Y-76493714D01*
X150685523Y-76588952D01*
X150637904Y-76636571D01*
X150542666Y-76684190D01*
X150161714Y-76684190D01*
X151685523Y-77160380D02*
X151114095Y-77160380D01*
X151399809Y-77160380D02*
X151399809Y-76160380D01*
X151304571Y-76303238D01*
X151209333Y-76398476D01*
X151114095Y-76446095D01*
X152161714Y-77160380D02*
X152352190Y-77160380D01*
X152447428Y-77112761D01*
X152495047Y-77065142D01*
X152590285Y-76922285D01*
X152637904Y-76731809D01*
X152637904Y-76350857D01*
X152590285Y-76255619D01*
X152542666Y-76208000D01*
X152447428Y-76160380D01*
X152256952Y-76160380D01*
X152161714Y-76208000D01*
X152114095Y-76255619D01*
X152066476Y-76350857D01*
X152066476Y-76588952D01*
X152114095Y-76684190D01*
X152161714Y-76731809D01*
X152256952Y-76779428D01*
X152447428Y-76779428D01*
X152542666Y-76731809D01*
X152590285Y-76684190D01*
X152637904Y-76588952D01*
X157559523Y-78176500D02*
X157464285Y-78128880D01*
X157321428Y-78128880D01*
X157178571Y-78176500D01*
X157083333Y-78271738D01*
X157035714Y-78366976D01*
X156988095Y-78557452D01*
X156988095Y-78700309D01*
X157035714Y-78890785D01*
X157083333Y-78986023D01*
X157178571Y-79081261D01*
X157321428Y-79128880D01*
X157416666Y-79128880D01*
X157559523Y-79081261D01*
X157607142Y-79033642D01*
X157607142Y-78700309D01*
X157416666Y-78700309D01*
X158035714Y-79128880D02*
X158035714Y-78128880D01*
X158416666Y-78128880D01*
X158511904Y-78176500D01*
X158559523Y-78224119D01*
X158607142Y-78319357D01*
X158607142Y-78462214D01*
X158559523Y-78557452D01*
X158511904Y-78605071D01*
X158416666Y-78652690D01*
X158035714Y-78652690D01*
X158988095Y-78224119D02*
X159035714Y-78176500D01*
X159130952Y-78128880D01*
X159369047Y-78128880D01*
X159464285Y-78176500D01*
X159511904Y-78224119D01*
X159559523Y-78319357D01*
X159559523Y-78414595D01*
X159511904Y-78557452D01*
X158940476Y-79128880D01*
X159559523Y-79128880D01*
X160178571Y-78128880D02*
X160273809Y-78128880D01*
X160369047Y-78176500D01*
X160416666Y-78224119D01*
X160464285Y-78319357D01*
X160511904Y-78509833D01*
X160511904Y-78747928D01*
X160464285Y-78938404D01*
X160416666Y-79033642D01*
X160369047Y-79081261D01*
X160273809Y-79128880D01*
X160178571Y-79128880D01*
X160083333Y-79081261D01*
X160035714Y-79033642D01*
X159988095Y-78938404D01*
X159940476Y-78747928D01*
X159940476Y-78509833D01*
X159988095Y-78319357D01*
X160035714Y-78224119D01*
X160083333Y-78176500D01*
X160178571Y-78128880D01*
X150495095Y-88908000D02*
X150399857Y-88860380D01*
X150257000Y-88860380D01*
X150114142Y-88908000D01*
X150018904Y-89003238D01*
X149971285Y-89098476D01*
X149923666Y-89288952D01*
X149923666Y-89431809D01*
X149971285Y-89622285D01*
X150018904Y-89717523D01*
X150114142Y-89812761D01*
X150257000Y-89860380D01*
X150352238Y-89860380D01*
X150495095Y-89812761D01*
X150542714Y-89765142D01*
X150542714Y-89431809D01*
X150352238Y-89431809D01*
X150971285Y-89860380D02*
X150971285Y-88860380D01*
X151542714Y-89860380D01*
X151542714Y-88860380D01*
X152018904Y-89860380D02*
X152018904Y-88860380D01*
X152257000Y-88860380D01*
X152399857Y-88908000D01*
X152495095Y-89003238D01*
X152542714Y-89098476D01*
X152590333Y-89288952D01*
X152590333Y-89431809D01*
X152542714Y-89622285D01*
X152495095Y-89717523D01*
X152399857Y-89812761D01*
X152257000Y-89860380D01*
X152018904Y-89860380D01*
X136406000Y-68373476D02*
X136358380Y-68468714D01*
X136358380Y-68611571D01*
X136406000Y-68754428D01*
X136501238Y-68849666D01*
X136596476Y-68897285D01*
X136786952Y-68944904D01*
X136929809Y-68944904D01*
X137120285Y-68897285D01*
X137215523Y-68849666D01*
X137310761Y-68754428D01*
X137358380Y-68611571D01*
X137358380Y-68516333D01*
X137310761Y-68373476D01*
X137263142Y-68325857D01*
X136929809Y-68325857D01*
X136929809Y-68516333D01*
X137358380Y-67897285D02*
X136358380Y-67897285D01*
X136358380Y-67516333D01*
X136406000Y-67421095D01*
X136453619Y-67373476D01*
X136548857Y-67325857D01*
X136691714Y-67325857D01*
X136786952Y-67373476D01*
X136834571Y-67421095D01*
X136882190Y-67516333D01*
X136882190Y-67897285D01*
X136453619Y-66944904D02*
X136406000Y-66897285D01*
X136358380Y-66802047D01*
X136358380Y-66563952D01*
X136406000Y-66468714D01*
X136453619Y-66421095D01*
X136548857Y-66373476D01*
X136644095Y-66373476D01*
X136786952Y-66421095D01*
X137358380Y-66992523D01*
X137358380Y-66373476D01*
X136358380Y-65754428D02*
X136358380Y-65659190D01*
X136406000Y-65563952D01*
X136453619Y-65516333D01*
X136548857Y-65468714D01*
X136739333Y-65421095D01*
X136977428Y-65421095D01*
X137167904Y-65468714D01*
X137263142Y-65516333D01*
X137310761Y-65563952D01*
X137358380Y-65659190D01*
X137358380Y-65754428D01*
X137310761Y-65849666D01*
X137263142Y-65897285D01*
X137167904Y-65944904D01*
X136977428Y-65992523D01*
X136739333Y-65992523D01*
X136548857Y-65944904D01*
X136453619Y-65897285D01*
X136406000Y-65849666D01*
X136358380Y-65754428D01*
X152042880Y-68682976D02*
X152042880Y-68063928D01*
X152423833Y-68397261D01*
X152423833Y-68254404D01*
X152471452Y-68159166D01*
X152519071Y-68111547D01*
X152614309Y-68063928D01*
X152852404Y-68063928D01*
X152947642Y-68111547D01*
X152995261Y-68159166D01*
X153042880Y-68254404D01*
X153042880Y-68540119D01*
X152995261Y-68635357D01*
X152947642Y-68682976D01*
X152376214Y-67730595D02*
X153042880Y-67492500D01*
X152376214Y-67254404D01*
X152042880Y-66968690D02*
X152042880Y-66349642D01*
X152423833Y-66682976D01*
X152423833Y-66540119D01*
X152471452Y-66444880D01*
X152519071Y-66397261D01*
X152614309Y-66349642D01*
X152852404Y-66349642D01*
X152947642Y-66397261D01*
X152995261Y-66444880D01*
X153042880Y-66540119D01*
X153042880Y-66825833D01*
X152995261Y-66921071D01*
X152947642Y-66968690D01*
X153042880Y-65349642D02*
X152566690Y-65682976D01*
X153042880Y-65921071D02*
X152042880Y-65921071D01*
X152042880Y-65540119D01*
X152090500Y-65444880D01*
X152138119Y-65397261D01*
X152233357Y-65349642D01*
X152376214Y-65349642D01*
X152471452Y-65397261D01*
X152519071Y-65444880D01*
X152566690Y-65540119D01*
X152566690Y-65921071D01*
X144407000Y-68627476D02*
X144359380Y-68722714D01*
X144359380Y-68865571D01*
X144407000Y-69008428D01*
X144502238Y-69103666D01*
X144597476Y-69151285D01*
X144787952Y-69198904D01*
X144930809Y-69198904D01*
X145121285Y-69151285D01*
X145216523Y-69103666D01*
X145311761Y-69008428D01*
X145359380Y-68865571D01*
X145359380Y-68770333D01*
X145311761Y-68627476D01*
X145264142Y-68579857D01*
X144930809Y-68579857D01*
X144930809Y-68770333D01*
X145359380Y-68151285D02*
X144359380Y-68151285D01*
X144359380Y-67770333D01*
X144407000Y-67675095D01*
X144454619Y-67627476D01*
X144549857Y-67579857D01*
X144692714Y-67579857D01*
X144787952Y-67627476D01*
X144835571Y-67675095D01*
X144883190Y-67770333D01*
X144883190Y-68151285D01*
X144454619Y-67198904D02*
X144407000Y-67151285D01*
X144359380Y-67056047D01*
X144359380Y-66817952D01*
X144407000Y-66722714D01*
X144454619Y-66675095D01*
X144549857Y-66627476D01*
X144645095Y-66627476D01*
X144787952Y-66675095D01*
X145359380Y-67246523D01*
X145359380Y-66627476D01*
X144359380Y-66294142D02*
X144359380Y-65627476D01*
X145359380Y-66056047D01*
X141740000Y-68627476D02*
X141692380Y-68722714D01*
X141692380Y-68865571D01*
X141740000Y-69008428D01*
X141835238Y-69103666D01*
X141930476Y-69151285D01*
X142120952Y-69198904D01*
X142263809Y-69198904D01*
X142454285Y-69151285D01*
X142549523Y-69103666D01*
X142644761Y-69008428D01*
X142692380Y-68865571D01*
X142692380Y-68770333D01*
X142644761Y-68627476D01*
X142597142Y-68579857D01*
X142263809Y-68579857D01*
X142263809Y-68770333D01*
X142692380Y-68151285D02*
X141692380Y-68151285D01*
X141692380Y-67770333D01*
X141740000Y-67675095D01*
X141787619Y-67627476D01*
X141882857Y-67579857D01*
X142025714Y-67579857D01*
X142120952Y-67627476D01*
X142168571Y-67675095D01*
X142216190Y-67770333D01*
X142216190Y-68151285D01*
X141787619Y-67198904D02*
X141740000Y-67151285D01*
X141692380Y-67056047D01*
X141692380Y-66817952D01*
X141740000Y-66722714D01*
X141787619Y-66675095D01*
X141882857Y-66627476D01*
X141978095Y-66627476D01*
X142120952Y-66675095D01*
X142692380Y-67246523D01*
X142692380Y-66627476D01*
X141787619Y-66246523D02*
X141740000Y-66198904D01*
X141692380Y-66103666D01*
X141692380Y-65865571D01*
X141740000Y-65770333D01*
X141787619Y-65722714D01*
X141882857Y-65675095D01*
X141978095Y-65675095D01*
X142120952Y-65722714D01*
X142692380Y-66294142D01*
X142692380Y-65675095D01*
X139644500Y-68246476D02*
X139596880Y-68341714D01*
X139596880Y-68484571D01*
X139644500Y-68627428D01*
X139739738Y-68722666D01*
X139834976Y-68770285D01*
X140025452Y-68817904D01*
X140168309Y-68817904D01*
X140358785Y-68770285D01*
X140454023Y-68722666D01*
X140549261Y-68627428D01*
X140596880Y-68484571D01*
X140596880Y-68389333D01*
X140549261Y-68246476D01*
X140501642Y-68198857D01*
X140168309Y-68198857D01*
X140168309Y-68389333D01*
X140596880Y-67770285D02*
X139596880Y-67770285D01*
X139596880Y-67389333D01*
X139644500Y-67294095D01*
X139692119Y-67246476D01*
X139787357Y-67198857D01*
X139930214Y-67198857D01*
X140025452Y-67246476D01*
X140073071Y-67294095D01*
X140120690Y-67389333D01*
X140120690Y-67770285D01*
X139692119Y-66817904D02*
X139644500Y-66770285D01*
X139596880Y-66675047D01*
X139596880Y-66436952D01*
X139644500Y-66341714D01*
X139692119Y-66294095D01*
X139787357Y-66246476D01*
X139882595Y-66246476D01*
X140025452Y-66294095D01*
X140596880Y-66865523D01*
X140596880Y-66246476D01*
X140596880Y-65294095D02*
X140596880Y-65865523D01*
X140596880Y-65579809D02*
X139596880Y-65579809D01*
X139739738Y-65675047D01*
X139834976Y-65770285D01*
X139882595Y-65865523D01*
X132532500Y-67865476D02*
X132484880Y-67960714D01*
X132484880Y-68103571D01*
X132532500Y-68246428D01*
X132627738Y-68341666D01*
X132722976Y-68389285D01*
X132913452Y-68436904D01*
X133056309Y-68436904D01*
X133246785Y-68389285D01*
X133342023Y-68341666D01*
X133437261Y-68246428D01*
X133484880Y-68103571D01*
X133484880Y-68008333D01*
X133437261Y-67865476D01*
X133389642Y-67817857D01*
X133056309Y-67817857D01*
X133056309Y-68008333D01*
X133484880Y-67389285D02*
X132484880Y-67389285D01*
X132484880Y-67008333D01*
X132532500Y-66913095D01*
X132580119Y-66865476D01*
X132675357Y-66817857D01*
X132818214Y-66817857D01*
X132913452Y-66865476D01*
X132961071Y-66913095D01*
X133008690Y-67008333D01*
X133008690Y-67389285D01*
X133484880Y-65865476D02*
X133484880Y-66436904D01*
X133484880Y-66151190D02*
X132484880Y-66151190D01*
X132627738Y-66246428D01*
X132722976Y-66341666D01*
X132770595Y-66436904D01*
X133484880Y-65389285D02*
X133484880Y-65198809D01*
X133437261Y-65103571D01*
X133389642Y-65055952D01*
X133246785Y-64960714D01*
X133056309Y-64913095D01*
X132675357Y-64913095D01*
X132580119Y-64960714D01*
X132532500Y-65008333D01*
X132484880Y-65103571D01*
X132484880Y-65294047D01*
X132532500Y-65389285D01*
X132580119Y-65436904D01*
X132675357Y-65484523D01*
X132913452Y-65484523D01*
X133008690Y-65436904D01*
X133056309Y-65389285D01*
X133103928Y-65294047D01*
X133103928Y-65103571D01*
X133056309Y-65008333D01*
X133008690Y-64960714D01*
X132913452Y-64913095D01*
X146947000Y-67944904D02*
X146899380Y-68040142D01*
X146899380Y-68183000D01*
X146947000Y-68325857D01*
X147042238Y-68421095D01*
X147137476Y-68468714D01*
X147327952Y-68516333D01*
X147470809Y-68516333D01*
X147661285Y-68468714D01*
X147756523Y-68421095D01*
X147851761Y-68325857D01*
X147899380Y-68183000D01*
X147899380Y-68087761D01*
X147851761Y-67944904D01*
X147804142Y-67897285D01*
X147470809Y-67897285D01*
X147470809Y-68087761D01*
X147899380Y-67468714D02*
X146899380Y-67468714D01*
X147899380Y-66897285D01*
X146899380Y-66897285D01*
X147899380Y-66421095D02*
X146899380Y-66421095D01*
X146899380Y-66183000D01*
X146947000Y-66040142D01*
X147042238Y-65944904D01*
X147137476Y-65897285D01*
X147327952Y-65849666D01*
X147470809Y-65849666D01*
X147661285Y-65897285D01*
X147756523Y-65944904D01*
X147851761Y-66040142D01*
X147899380Y-66183000D01*
X147899380Y-66421095D01*
X149693380Y-69151285D02*
X150693380Y-68817952D01*
X149693380Y-68484619D01*
X150645761Y-68198904D02*
X150693380Y-68056047D01*
X150693380Y-67817952D01*
X150645761Y-67722714D01*
X150598142Y-67675095D01*
X150502904Y-67627476D01*
X150407666Y-67627476D01*
X150312428Y-67675095D01*
X150264809Y-67722714D01*
X150217190Y-67817952D01*
X150169571Y-68008428D01*
X150121952Y-68103666D01*
X150074333Y-68151285D01*
X149979095Y-68198904D01*
X149883857Y-68198904D01*
X149788619Y-68151285D01*
X149741000Y-68103666D01*
X149693380Y-68008428D01*
X149693380Y-67770333D01*
X149741000Y-67627476D01*
X150217190Y-67008428D02*
X150693380Y-67008428D01*
X149693380Y-67341761D02*
X150217190Y-67008428D01*
X149693380Y-66675095D01*
X150645761Y-66389380D02*
X150693380Y-66246523D01*
X150693380Y-66008428D01*
X150645761Y-65913190D01*
X150598142Y-65865571D01*
X150502904Y-65817952D01*
X150407666Y-65817952D01*
X150312428Y-65865571D01*
X150264809Y-65913190D01*
X150217190Y-66008428D01*
X150169571Y-66198904D01*
X150121952Y-66294142D01*
X150074333Y-66341761D01*
X149979095Y-66389380D01*
X149883857Y-66389380D01*
X149788619Y-66341761D01*
X149741000Y-66294142D01*
X149693380Y-66198904D01*
X149693380Y-65960809D01*
X149741000Y-65817952D01*
X134183666Y-93813380D02*
X134517000Y-94813380D01*
X134850333Y-93813380D01*
X135517000Y-94289571D02*
X135659857Y-94337190D01*
X135707476Y-94384809D01*
X135755095Y-94480047D01*
X135755095Y-94622904D01*
X135707476Y-94718142D01*
X135659857Y-94765761D01*
X135564619Y-94813380D01*
X135183666Y-94813380D01*
X135183666Y-93813380D01*
X135517000Y-93813380D01*
X135612238Y-93861000D01*
X135659857Y-93908619D01*
X135707476Y-94003857D01*
X135707476Y-94099095D01*
X135659857Y-94194333D01*
X135612238Y-94241952D01*
X135517000Y-94289571D01*
X135183666Y-94289571D01*
X136183666Y-93813380D02*
X136183666Y-94622904D01*
X136231285Y-94718142D01*
X136278904Y-94765761D01*
X136374142Y-94813380D01*
X136564619Y-94813380D01*
X136659857Y-94765761D01*
X136707476Y-94718142D01*
X136755095Y-94622904D01*
X136755095Y-93813380D01*
X137183666Y-94765761D02*
X137326523Y-94813380D01*
X137564619Y-94813380D01*
X137659857Y-94765761D01*
X137707476Y-94718142D01*
X137755095Y-94622904D01*
X137755095Y-94527666D01*
X137707476Y-94432428D01*
X137659857Y-94384809D01*
X137564619Y-94337190D01*
X137374142Y-94289571D01*
X137278904Y-94241952D01*
X137231285Y-94194333D01*
X137183666Y-94099095D01*
X137183666Y-94003857D01*
X137231285Y-93908619D01*
X137278904Y-93861000D01*
X137374142Y-93813380D01*
X137612238Y-93813380D01*
X137755095Y-93861000D01*
X135001095Y-91321000D02*
X134905857Y-91273380D01*
X134763000Y-91273380D01*
X134620142Y-91321000D01*
X134524904Y-91416238D01*
X134477285Y-91511476D01*
X134429666Y-91701952D01*
X134429666Y-91844809D01*
X134477285Y-92035285D01*
X134524904Y-92130523D01*
X134620142Y-92225761D01*
X134763000Y-92273380D01*
X134858238Y-92273380D01*
X135001095Y-92225761D01*
X135048714Y-92178142D01*
X135048714Y-91844809D01*
X134858238Y-91844809D01*
X135477285Y-92273380D02*
X135477285Y-91273380D01*
X136048714Y-92273380D01*
X136048714Y-91273380D01*
X136524904Y-92273380D02*
X136524904Y-91273380D01*
X136763000Y-91273380D01*
X136905857Y-91321000D01*
X137001095Y-91416238D01*
X137048714Y-91511476D01*
X137096333Y-91701952D01*
X137096333Y-91844809D01*
X137048714Y-92035285D01*
X137001095Y-92130523D01*
X136905857Y-92225761D01*
X136763000Y-92273380D01*
X136524904Y-92273380D01*
X134953523Y-88654000D02*
X134858285Y-88606380D01*
X134715428Y-88606380D01*
X134572571Y-88654000D01*
X134477333Y-88749238D01*
X134429714Y-88844476D01*
X134382095Y-89034952D01*
X134382095Y-89177809D01*
X134429714Y-89368285D01*
X134477333Y-89463523D01*
X134572571Y-89558761D01*
X134715428Y-89606380D01*
X134810666Y-89606380D01*
X134953523Y-89558761D01*
X135001142Y-89511142D01*
X135001142Y-89177809D01*
X134810666Y-89177809D01*
X135429714Y-89606380D02*
X135429714Y-88606380D01*
X135810666Y-88606380D01*
X135905904Y-88654000D01*
X135953523Y-88701619D01*
X136001142Y-88796857D01*
X136001142Y-88939714D01*
X135953523Y-89034952D01*
X135905904Y-89082571D01*
X135810666Y-89130190D01*
X135429714Y-89130190D01*
X136953523Y-89606380D02*
X136382095Y-89606380D01*
X136667809Y-89606380D02*
X136667809Y-88606380D01*
X136572571Y-88749238D01*
X136477333Y-88844476D01*
X136382095Y-88892095D01*
X137524952Y-89034952D02*
X137429714Y-88987333D01*
X137382095Y-88939714D01*
X137334476Y-88844476D01*
X137334476Y-88796857D01*
X137382095Y-88701619D01*
X137429714Y-88654000D01*
X137524952Y-88606380D01*
X137715428Y-88606380D01*
X137810666Y-88654000D01*
X137858285Y-88701619D01*
X137905904Y-88796857D01*
X137905904Y-88844476D01*
X137858285Y-88939714D01*
X137810666Y-88987333D01*
X137715428Y-89034952D01*
X137524952Y-89034952D01*
X137429714Y-89082571D01*
X137382095Y-89130190D01*
X137334476Y-89225428D01*
X137334476Y-89415904D01*
X137382095Y-89511142D01*
X137429714Y-89558761D01*
X137524952Y-89606380D01*
X137715428Y-89606380D01*
X137810666Y-89558761D01*
X137858285Y-89511142D01*
X137905904Y-89415904D01*
X137905904Y-89225428D01*
X137858285Y-89130190D01*
X137810666Y-89082571D01*
X137715428Y-89034952D01*
X134794714Y-75827000D02*
X134699476Y-75779380D01*
X134556619Y-75779380D01*
X134413761Y-75827000D01*
X134318523Y-75922238D01*
X134270904Y-76017476D01*
X134223285Y-76207952D01*
X134223285Y-76350809D01*
X134270904Y-76541285D01*
X134318523Y-76636523D01*
X134413761Y-76731761D01*
X134556619Y-76779380D01*
X134651857Y-76779380D01*
X134794714Y-76731761D01*
X134842333Y-76684142D01*
X134842333Y-76350809D01*
X134651857Y-76350809D01*
X135270904Y-76779380D02*
X135270904Y-75779380D01*
X135651857Y-75779380D01*
X135747095Y-75827000D01*
X135794714Y-75874619D01*
X135842333Y-75969857D01*
X135842333Y-76112714D01*
X135794714Y-76207952D01*
X135747095Y-76255571D01*
X135651857Y-76303190D01*
X135270904Y-76303190D01*
X136175666Y-75779380D02*
X136842333Y-75779380D01*
X136413761Y-76779380D01*
X134953523Y-85987000D02*
X134858285Y-85939380D01*
X134715428Y-85939380D01*
X134572571Y-85987000D01*
X134477333Y-86082238D01*
X134429714Y-86177476D01*
X134382095Y-86367952D01*
X134382095Y-86510809D01*
X134429714Y-86701285D01*
X134477333Y-86796523D01*
X134572571Y-86891761D01*
X134715428Y-86939380D01*
X134810666Y-86939380D01*
X134953523Y-86891761D01*
X135001142Y-86844142D01*
X135001142Y-86510809D01*
X134810666Y-86510809D01*
X135429714Y-86939380D02*
X135429714Y-85939380D01*
X135810666Y-85939380D01*
X135905904Y-85987000D01*
X135953523Y-86034619D01*
X136001142Y-86129857D01*
X136001142Y-86272714D01*
X135953523Y-86367952D01*
X135905904Y-86415571D01*
X135810666Y-86463190D01*
X135429714Y-86463190D01*
X136953523Y-86939380D02*
X136382095Y-86939380D01*
X136667809Y-86939380D02*
X136667809Y-85939380D01*
X136572571Y-86082238D01*
X136477333Y-86177476D01*
X136382095Y-86225095D01*
X137858285Y-85939380D02*
X137382095Y-85939380D01*
X137334476Y-86415571D01*
X137382095Y-86367952D01*
X137477333Y-86320333D01*
X137715428Y-86320333D01*
X137810666Y-86367952D01*
X137858285Y-86415571D01*
X137905904Y-86510809D01*
X137905904Y-86748904D01*
X137858285Y-86844142D01*
X137810666Y-86891761D01*
X137715428Y-86939380D01*
X137477333Y-86939380D01*
X137382095Y-86891761D01*
X137334476Y-86844142D01*
X134699523Y-78367000D02*
X134604285Y-78319380D01*
X134461428Y-78319380D01*
X134318571Y-78367000D01*
X134223333Y-78462238D01*
X134175714Y-78557476D01*
X134128095Y-78747952D01*
X134128095Y-78890809D01*
X134175714Y-79081285D01*
X134223333Y-79176523D01*
X134318571Y-79271761D01*
X134461428Y-79319380D01*
X134556666Y-79319380D01*
X134699523Y-79271761D01*
X134747142Y-79224142D01*
X134747142Y-78890809D01*
X134556666Y-78890809D01*
X135175714Y-79319380D02*
X135175714Y-78319380D01*
X135556666Y-78319380D01*
X135651904Y-78367000D01*
X135699523Y-78414619D01*
X135747142Y-78509857D01*
X135747142Y-78652714D01*
X135699523Y-78747952D01*
X135651904Y-78795571D01*
X135556666Y-78843190D01*
X135175714Y-78843190D01*
X136699523Y-79319380D02*
X136128095Y-79319380D01*
X136413809Y-79319380D02*
X136413809Y-78319380D01*
X136318571Y-78462238D01*
X136223333Y-78557476D01*
X136128095Y-78605095D01*
X137080476Y-78414619D02*
X137128095Y-78367000D01*
X137223333Y-78319380D01*
X137461428Y-78319380D01*
X137556666Y-78367000D01*
X137604285Y-78414619D01*
X137651904Y-78509857D01*
X137651904Y-78605095D01*
X137604285Y-78747952D01*
X137032857Y-79319380D01*
X137651904Y-79319380D01*
X134953523Y-81161000D02*
X134858285Y-81113380D01*
X134715428Y-81113380D01*
X134572571Y-81161000D01*
X134477333Y-81256238D01*
X134429714Y-81351476D01*
X134382095Y-81541952D01*
X134382095Y-81684809D01*
X134429714Y-81875285D01*
X134477333Y-81970523D01*
X134572571Y-82065761D01*
X134715428Y-82113380D01*
X134810666Y-82113380D01*
X134953523Y-82065761D01*
X135001142Y-82018142D01*
X135001142Y-81684809D01*
X134810666Y-81684809D01*
X135429714Y-82113380D02*
X135429714Y-81113380D01*
X135810666Y-81113380D01*
X135905904Y-81161000D01*
X135953523Y-81208619D01*
X136001142Y-81303857D01*
X136001142Y-81446714D01*
X135953523Y-81541952D01*
X135905904Y-81589571D01*
X135810666Y-81637190D01*
X135429714Y-81637190D01*
X136953523Y-82113380D02*
X136382095Y-82113380D01*
X136667809Y-82113380D02*
X136667809Y-81113380D01*
X136572571Y-81256238D01*
X136477333Y-81351476D01*
X136382095Y-81399095D01*
X137286857Y-81113380D02*
X137905904Y-81113380D01*
X137572571Y-81494333D01*
X137715428Y-81494333D01*
X137810666Y-81541952D01*
X137858285Y-81589571D01*
X137905904Y-81684809D01*
X137905904Y-81922904D01*
X137858285Y-82018142D01*
X137810666Y-82065761D01*
X137715428Y-82113380D01*
X137429714Y-82113380D01*
X137334476Y-82065761D01*
X137286857Y-82018142D01*
X135144023Y-83129500D02*
X135048785Y-83081880D01*
X134905928Y-83081880D01*
X134763071Y-83129500D01*
X134667833Y-83224738D01*
X134620214Y-83319976D01*
X134572595Y-83510452D01*
X134572595Y-83653309D01*
X134620214Y-83843785D01*
X134667833Y-83939023D01*
X134763071Y-84034261D01*
X134905928Y-84081880D01*
X135001166Y-84081880D01*
X135144023Y-84034261D01*
X135191642Y-83986642D01*
X135191642Y-83653309D01*
X135001166Y-83653309D01*
X135620214Y-84081880D02*
X135620214Y-83081880D01*
X136001166Y-83081880D01*
X136096404Y-83129500D01*
X136144023Y-83177119D01*
X136191642Y-83272357D01*
X136191642Y-83415214D01*
X136144023Y-83510452D01*
X136096404Y-83558071D01*
X136001166Y-83605690D01*
X135620214Y-83605690D01*
X137144023Y-84081880D02*
X136572595Y-84081880D01*
X136858309Y-84081880D02*
X136858309Y-83081880D01*
X136763071Y-83224738D01*
X136667833Y-83319976D01*
X136572595Y-83367595D01*
X138001166Y-83415214D02*
X138001166Y-84081880D01*
X137763071Y-83034261D02*
X137524976Y-83748547D01*
X138144023Y-83748547D01*
X151852380Y-106862333D02*
X152852380Y-106529000D01*
X151852380Y-106195666D01*
X152328571Y-105529000D02*
X152376190Y-105386142D01*
X152423809Y-105338523D01*
X152519047Y-105290904D01*
X152661904Y-105290904D01*
X152757142Y-105338523D01*
X152804761Y-105386142D01*
X152852380Y-105481380D01*
X152852380Y-105862333D01*
X151852380Y-105862333D01*
X151852380Y-105529000D01*
X151900000Y-105433761D01*
X151947619Y-105386142D01*
X152042857Y-105338523D01*
X152138095Y-105338523D01*
X152233333Y-105386142D01*
X152280952Y-105433761D01*
X152328571Y-105529000D01*
X152328571Y-105862333D01*
X151852380Y-104862333D02*
X152661904Y-104862333D01*
X152757142Y-104814714D01*
X152804761Y-104767095D01*
X152852380Y-104671857D01*
X152852380Y-104481380D01*
X152804761Y-104386142D01*
X152757142Y-104338523D01*
X152661904Y-104290904D01*
X151852380Y-104290904D01*
X152804761Y-103862333D02*
X152852380Y-103719476D01*
X152852380Y-103481380D01*
X152804761Y-103386142D01*
X152757142Y-103338523D01*
X152661904Y-103290904D01*
X152566666Y-103290904D01*
X152471428Y-103338523D01*
X152423809Y-103386142D01*
X152376190Y-103481380D01*
X152328571Y-103671857D01*
X152280952Y-103767095D01*
X152233333Y-103814714D01*
X152138095Y-103862333D01*
X152042857Y-103862333D01*
X151947619Y-103814714D01*
X151900000Y-103767095D01*
X151852380Y-103671857D01*
X151852380Y-103433761D01*
X151900000Y-103290904D01*
X149360000Y-106425904D02*
X149312380Y-106521142D01*
X149312380Y-106664000D01*
X149360000Y-106806857D01*
X149455238Y-106902095D01*
X149550476Y-106949714D01*
X149740952Y-106997333D01*
X149883809Y-106997333D01*
X150074285Y-106949714D01*
X150169523Y-106902095D01*
X150264761Y-106806857D01*
X150312380Y-106664000D01*
X150312380Y-106568761D01*
X150264761Y-106425904D01*
X150217142Y-106378285D01*
X149883809Y-106378285D01*
X149883809Y-106568761D01*
X150312380Y-105949714D02*
X149312380Y-105949714D01*
X150312380Y-105378285D01*
X149312380Y-105378285D01*
X150312380Y-104902095D02*
X149312380Y-104902095D01*
X149312380Y-104664000D01*
X149360000Y-104521142D01*
X149455238Y-104425904D01*
X149550476Y-104378285D01*
X149740952Y-104330666D01*
X149883809Y-104330666D01*
X150074285Y-104378285D01*
X150169523Y-104425904D01*
X150264761Y-104521142D01*
X150312380Y-104664000D01*
X150312380Y-104902095D01*
X146693000Y-106473476D02*
X146645380Y-106568714D01*
X146645380Y-106711571D01*
X146693000Y-106854428D01*
X146788238Y-106949666D01*
X146883476Y-106997285D01*
X147073952Y-107044904D01*
X147216809Y-107044904D01*
X147407285Y-106997285D01*
X147502523Y-106949666D01*
X147597761Y-106854428D01*
X147645380Y-106711571D01*
X147645380Y-106616333D01*
X147597761Y-106473476D01*
X147550142Y-106425857D01*
X147216809Y-106425857D01*
X147216809Y-106616333D01*
X147645380Y-105997285D02*
X146645380Y-105997285D01*
X146645380Y-105616333D01*
X146693000Y-105521095D01*
X146740619Y-105473476D01*
X146835857Y-105425857D01*
X146978714Y-105425857D01*
X147073952Y-105473476D01*
X147121571Y-105521095D01*
X147169190Y-105616333D01*
X147169190Y-105997285D01*
X147645380Y-104473476D02*
X147645380Y-105044904D01*
X147645380Y-104759190D02*
X146645380Y-104759190D01*
X146788238Y-104854428D01*
X146883476Y-104949666D01*
X146931095Y-105044904D01*
X147073952Y-103902047D02*
X147026333Y-103997285D01*
X146978714Y-104044904D01*
X146883476Y-104092523D01*
X146835857Y-104092523D01*
X146740619Y-104044904D01*
X146693000Y-103997285D01*
X146645380Y-103902047D01*
X146645380Y-103711571D01*
X146693000Y-103616333D01*
X146740619Y-103568714D01*
X146835857Y-103521095D01*
X146883476Y-103521095D01*
X146978714Y-103568714D01*
X147026333Y-103616333D01*
X147073952Y-103711571D01*
X147073952Y-103902047D01*
X147121571Y-103997285D01*
X147169190Y-104044904D01*
X147264428Y-104092523D01*
X147454904Y-104092523D01*
X147550142Y-104044904D01*
X147597761Y-103997285D01*
X147645380Y-103902047D01*
X147645380Y-103711571D01*
X147597761Y-103616333D01*
X147550142Y-103568714D01*
X147454904Y-103521095D01*
X147264428Y-103521095D01*
X147169190Y-103568714D01*
X147121571Y-103616333D01*
X147073952Y-103711571D01*
X144026000Y-106473476D02*
X143978380Y-106568714D01*
X143978380Y-106711571D01*
X144026000Y-106854428D01*
X144121238Y-106949666D01*
X144216476Y-106997285D01*
X144406952Y-107044904D01*
X144549809Y-107044904D01*
X144740285Y-106997285D01*
X144835523Y-106949666D01*
X144930761Y-106854428D01*
X144978380Y-106711571D01*
X144978380Y-106616333D01*
X144930761Y-106473476D01*
X144883142Y-106425857D01*
X144549809Y-106425857D01*
X144549809Y-106616333D01*
X144978380Y-105997285D02*
X143978380Y-105997285D01*
X143978380Y-105616333D01*
X144026000Y-105521095D01*
X144073619Y-105473476D01*
X144168857Y-105425857D01*
X144311714Y-105425857D01*
X144406952Y-105473476D01*
X144454571Y-105521095D01*
X144502190Y-105616333D01*
X144502190Y-105997285D01*
X144978380Y-104473476D02*
X144978380Y-105044904D01*
X144978380Y-104759190D02*
X143978380Y-104759190D01*
X144121238Y-104854428D01*
X144216476Y-104949666D01*
X144264095Y-105044904D01*
X143978380Y-103568714D02*
X143978380Y-104044904D01*
X144454571Y-104092523D01*
X144406952Y-104044904D01*
X144359333Y-103949666D01*
X144359333Y-103711571D01*
X144406952Y-103616333D01*
X144454571Y-103568714D01*
X144549809Y-103521095D01*
X144787904Y-103521095D01*
X144883142Y-103568714D01*
X144930761Y-103616333D01*
X144978380Y-103711571D01*
X144978380Y-103949666D01*
X144930761Y-104044904D01*
X144883142Y-104092523D01*
X141613000Y-106346476D02*
X141565380Y-106441714D01*
X141565380Y-106584571D01*
X141613000Y-106727428D01*
X141708238Y-106822666D01*
X141803476Y-106870285D01*
X141993952Y-106917904D01*
X142136809Y-106917904D01*
X142327285Y-106870285D01*
X142422523Y-106822666D01*
X142517761Y-106727428D01*
X142565380Y-106584571D01*
X142565380Y-106489333D01*
X142517761Y-106346476D01*
X142470142Y-106298857D01*
X142136809Y-106298857D01*
X142136809Y-106489333D01*
X142565380Y-105870285D02*
X141565380Y-105870285D01*
X141565380Y-105489333D01*
X141613000Y-105394095D01*
X141660619Y-105346476D01*
X141755857Y-105298857D01*
X141898714Y-105298857D01*
X141993952Y-105346476D01*
X142041571Y-105394095D01*
X142089190Y-105489333D01*
X142089190Y-105870285D01*
X142565380Y-104346476D02*
X142565380Y-104917904D01*
X142565380Y-104632190D02*
X141565380Y-104632190D01*
X141708238Y-104727428D01*
X141803476Y-104822666D01*
X141851095Y-104917904D01*
X141898714Y-103489333D02*
X142565380Y-103489333D01*
X141517761Y-103727428D02*
X142232047Y-103965523D01*
X142232047Y-103346476D01*
X137993500Y-106346476D02*
X137945880Y-106441714D01*
X137945880Y-106584571D01*
X137993500Y-106727428D01*
X138088738Y-106822666D01*
X138183976Y-106870285D01*
X138374452Y-106917904D01*
X138517309Y-106917904D01*
X138707785Y-106870285D01*
X138803023Y-106822666D01*
X138898261Y-106727428D01*
X138945880Y-106584571D01*
X138945880Y-106489333D01*
X138898261Y-106346476D01*
X138850642Y-106298857D01*
X138517309Y-106298857D01*
X138517309Y-106489333D01*
X138945880Y-105870285D02*
X137945880Y-105870285D01*
X137945880Y-105489333D01*
X137993500Y-105394095D01*
X138041119Y-105346476D01*
X138136357Y-105298857D01*
X138279214Y-105298857D01*
X138374452Y-105346476D01*
X138422071Y-105394095D01*
X138469690Y-105489333D01*
X138469690Y-105870285D01*
X138945880Y-104346476D02*
X138945880Y-104917904D01*
X138945880Y-104632190D02*
X137945880Y-104632190D01*
X138088738Y-104727428D01*
X138183976Y-104822666D01*
X138231595Y-104917904D01*
X137945880Y-104013142D02*
X137945880Y-103394095D01*
X138326833Y-103727428D01*
X138326833Y-103584571D01*
X138374452Y-103489333D01*
X138422071Y-103441714D01*
X138517309Y-103394095D01*
X138755404Y-103394095D01*
X138850642Y-103441714D01*
X138898261Y-103489333D01*
X138945880Y-103584571D01*
X138945880Y-103870285D01*
X138898261Y-103965523D01*
X138850642Y-104013142D01*
X136025000Y-106854476D02*
X135977380Y-106949714D01*
X135977380Y-107092571D01*
X136025000Y-107235428D01*
X136120238Y-107330666D01*
X136215476Y-107378285D01*
X136405952Y-107425904D01*
X136548809Y-107425904D01*
X136739285Y-107378285D01*
X136834523Y-107330666D01*
X136929761Y-107235428D01*
X136977380Y-107092571D01*
X136977380Y-106997333D01*
X136929761Y-106854476D01*
X136882142Y-106806857D01*
X136548809Y-106806857D01*
X136548809Y-106997333D01*
X136977380Y-106378285D02*
X135977380Y-106378285D01*
X135977380Y-105997333D01*
X136025000Y-105902095D01*
X136072619Y-105854476D01*
X136167857Y-105806857D01*
X136310714Y-105806857D01*
X136405952Y-105854476D01*
X136453571Y-105902095D01*
X136501190Y-105997333D01*
X136501190Y-106378285D01*
X136977380Y-104854476D02*
X136977380Y-105425904D01*
X136977380Y-105140190D02*
X135977380Y-105140190D01*
X136120238Y-105235428D01*
X136215476Y-105330666D01*
X136263095Y-105425904D01*
X136072619Y-104473523D02*
X136025000Y-104425904D01*
X135977380Y-104330666D01*
X135977380Y-104092571D01*
X136025000Y-103997333D01*
X136072619Y-103949714D01*
X136167857Y-103902095D01*
X136263095Y-103902095D01*
X136405952Y-103949714D01*
X136977380Y-104521142D01*
X136977380Y-103902095D01*
X133993000Y-106378285D02*
X133945380Y-106473523D01*
X133945380Y-106616380D01*
X133993000Y-106759238D01*
X134088238Y-106854476D01*
X134183476Y-106902095D01*
X134373952Y-106949714D01*
X134516809Y-106949714D01*
X134707285Y-106902095D01*
X134802523Y-106854476D01*
X134897761Y-106759238D01*
X134945380Y-106616380D01*
X134945380Y-106521142D01*
X134897761Y-106378285D01*
X134850142Y-106330666D01*
X134516809Y-106330666D01*
X134516809Y-106521142D01*
X134945380Y-105902095D02*
X133945380Y-105902095D01*
X133945380Y-105521142D01*
X133993000Y-105425904D01*
X134040619Y-105378285D01*
X134135857Y-105330666D01*
X134278714Y-105330666D01*
X134373952Y-105378285D01*
X134421571Y-105425904D01*
X134469190Y-105521142D01*
X134469190Y-105902095D01*
X133945380Y-104997333D02*
X133945380Y-104330666D01*
X134945380Y-104759238D01*
X120539190Y-99290142D02*
X120491571Y-99337761D01*
X120348714Y-99385380D01*
X120253476Y-99385380D01*
X120110619Y-99337761D01*
X120015380Y-99242523D01*
X119967761Y-99147285D01*
X119920142Y-98956809D01*
X119920142Y-98813952D01*
X119967761Y-98623476D01*
X120015380Y-98528238D01*
X120110619Y-98433000D01*
X120253476Y-98385380D01*
X120348714Y-98385380D01*
X120491571Y-98433000D01*
X120539190Y-98480619D01*
X121158238Y-98385380D02*
X121348714Y-98385380D01*
X121443952Y-98433000D01*
X121539190Y-98528238D01*
X121586809Y-98718714D01*
X121586809Y-99052047D01*
X121539190Y-99242523D01*
X121443952Y-99337761D01*
X121348714Y-99385380D01*
X121158238Y-99385380D01*
X121063000Y-99337761D01*
X120967761Y-99242523D01*
X120920142Y-99052047D01*
X120920142Y-98718714D01*
X120967761Y-98528238D01*
X121063000Y-98433000D01*
X121158238Y-98385380D01*
X122015380Y-99385380D02*
X122015380Y-98385380D01*
X122348714Y-99099666D01*
X122682047Y-98385380D01*
X122682047Y-99385380D01*
X123158238Y-99385380D02*
X123158238Y-98385380D01*
X123634428Y-99385380D02*
X123634428Y-98385380D01*
X123872523Y-98385380D01*
X124015380Y-98433000D01*
X124110619Y-98528238D01*
X124158238Y-98623476D01*
X124205857Y-98813952D01*
X124205857Y-98956809D01*
X124158238Y-99147285D01*
X124110619Y-99242523D01*
X124015380Y-99337761D01*
X123872523Y-99385380D01*
X123634428Y-99385380D01*
X124824904Y-98385380D02*
X125015380Y-98385380D01*
X125110619Y-98433000D01*
X125205857Y-98528238D01*
X125253476Y-98718714D01*
X125253476Y-99052047D01*
X125205857Y-99242523D01*
X125110619Y-99337761D01*
X125015380Y-99385380D01*
X124824904Y-99385380D01*
X124729666Y-99337761D01*
X124634428Y-99242523D01*
X124586809Y-99052047D01*
X124586809Y-98718714D01*
X124634428Y-98528238D01*
X124729666Y-98433000D01*
X124824904Y-98385380D01*
X125586809Y-98385380D02*
X126253476Y-99385380D01*
X126253476Y-98385380D02*
X125586809Y-99385380D01*
X158242095Y-83447000D02*
X158146857Y-83399380D01*
X158004000Y-83399380D01*
X157861142Y-83447000D01*
X157765904Y-83542238D01*
X157718285Y-83637476D01*
X157670666Y-83827952D01*
X157670666Y-83970809D01*
X157718285Y-84161285D01*
X157765904Y-84256523D01*
X157861142Y-84351761D01*
X158004000Y-84399380D01*
X158099238Y-84399380D01*
X158242095Y-84351761D01*
X158289714Y-84304142D01*
X158289714Y-83970809D01*
X158099238Y-83970809D01*
X158718285Y-84399380D02*
X158718285Y-83399380D01*
X159289714Y-84399380D01*
X159289714Y-83399380D01*
X159765904Y-84399380D02*
X159765904Y-83399380D01*
X160004000Y-83399380D01*
X160146857Y-83447000D01*
X160242095Y-83542238D01*
X160289714Y-83637476D01*
X160337333Y-83827952D01*
X160337333Y-83970809D01*
X160289714Y-84161285D01*
X160242095Y-84256523D01*
X160146857Y-84351761D01*
X160004000Y-84399380D01*
X159765904Y-84399380D01*
X157305595Y-85907571D02*
X157638928Y-85907571D01*
X157781785Y-86431380D02*
X157305595Y-86431380D01*
X157305595Y-85431380D01*
X157781785Y-85431380D01*
X158781785Y-86336142D02*
X158734166Y-86383761D01*
X158591309Y-86431380D01*
X158496071Y-86431380D01*
X158353214Y-86383761D01*
X158257976Y-86288523D01*
X158210357Y-86193285D01*
X158162738Y-86002809D01*
X158162738Y-85859952D01*
X158210357Y-85669476D01*
X158257976Y-85574238D01*
X158353214Y-85479000D01*
X158496071Y-85431380D01*
X158591309Y-85431380D01*
X158734166Y-85479000D01*
X158781785Y-85526619D01*
X159210357Y-86431380D02*
X159210357Y-85431380D01*
X159210357Y-85907571D02*
X159781785Y-85907571D01*
X159781785Y-86431380D02*
X159781785Y-85431380D01*
X160448452Y-85431380D02*
X160638928Y-85431380D01*
X160734166Y-85479000D01*
X160829404Y-85574238D01*
X160877023Y-85764714D01*
X160877023Y-86098047D01*
X160829404Y-86288523D01*
X160734166Y-86383761D01*
X160638928Y-86431380D01*
X160448452Y-86431380D01*
X160353214Y-86383761D01*
X160257976Y-86288523D01*
X160210357Y-86098047D01*
X160210357Y-85764714D01*
X160257976Y-85574238D01*
X160353214Y-85479000D01*
X160448452Y-85431380D01*
X157162690Y-88923880D02*
X157734119Y-88923880D01*
X157448404Y-89923880D02*
X157448404Y-88923880D01*
X158638880Y-89923880D02*
X158305547Y-89447690D01*
X158067452Y-89923880D02*
X158067452Y-88923880D01*
X158448404Y-88923880D01*
X158543642Y-88971500D01*
X158591261Y-89019119D01*
X158638880Y-89114357D01*
X158638880Y-89257214D01*
X158591261Y-89352452D01*
X158543642Y-89400071D01*
X158448404Y-89447690D01*
X158067452Y-89447690D01*
X159067452Y-89923880D02*
X159067452Y-88923880D01*
X160067452Y-88971500D02*
X159972214Y-88923880D01*
X159829357Y-88923880D01*
X159686500Y-88971500D01*
X159591261Y-89066738D01*
X159543642Y-89161976D01*
X159496023Y-89352452D01*
X159496023Y-89495309D01*
X159543642Y-89685785D01*
X159591261Y-89781023D01*
X159686500Y-89876261D01*
X159829357Y-89923880D01*
X159924595Y-89923880D01*
X160067452Y-89876261D01*
X160115071Y-89828642D01*
X160115071Y-89495309D01*
X159924595Y-89495309D01*
X98179000Y-67690904D02*
X98131380Y-67786142D01*
X98131380Y-67929000D01*
X98179000Y-68071857D01*
X98274238Y-68167095D01*
X98369476Y-68214714D01*
X98559952Y-68262333D01*
X98702809Y-68262333D01*
X98893285Y-68214714D01*
X98988523Y-68167095D01*
X99083761Y-68071857D01*
X99131380Y-67929000D01*
X99131380Y-67833761D01*
X99083761Y-67690904D01*
X99036142Y-67643285D01*
X98702809Y-67643285D01*
X98702809Y-67833761D01*
X99131380Y-67214714D02*
X98131380Y-67214714D01*
X99131380Y-66643285D01*
X98131380Y-66643285D01*
X99131380Y-66167095D02*
X98131380Y-66167095D01*
X98131380Y-65929000D01*
X98179000Y-65786142D01*
X98274238Y-65690904D01*
X98369476Y-65643285D01*
X98559952Y-65595666D01*
X98702809Y-65595666D01*
X98893285Y-65643285D01*
X98988523Y-65690904D01*
X99083761Y-65786142D01*
X99131380Y-65929000D01*
X99131380Y-66167095D01*
X95337380Y-69024285D02*
X96337380Y-68690952D01*
X95337380Y-68357619D01*
X96289761Y-68071904D02*
X96337380Y-67929047D01*
X96337380Y-67690952D01*
X96289761Y-67595714D01*
X96242142Y-67548095D01*
X96146904Y-67500476D01*
X96051666Y-67500476D01*
X95956428Y-67548095D01*
X95908809Y-67595714D01*
X95861190Y-67690952D01*
X95813571Y-67881428D01*
X95765952Y-67976666D01*
X95718333Y-68024285D01*
X95623095Y-68071904D01*
X95527857Y-68071904D01*
X95432619Y-68024285D01*
X95385000Y-67976666D01*
X95337380Y-67881428D01*
X95337380Y-67643333D01*
X95385000Y-67500476D01*
X95861190Y-66881428D02*
X96337380Y-66881428D01*
X95337380Y-67214761D02*
X95861190Y-66881428D01*
X95337380Y-66548095D01*
X96289761Y-66262380D02*
X96337380Y-66119523D01*
X96337380Y-65881428D01*
X96289761Y-65786190D01*
X96242142Y-65738571D01*
X96146904Y-65690952D01*
X96051666Y-65690952D01*
X95956428Y-65738571D01*
X95908809Y-65786190D01*
X95861190Y-65881428D01*
X95813571Y-66071904D01*
X95765952Y-66167142D01*
X95718333Y-66214761D01*
X95623095Y-66262380D01*
X95527857Y-66262380D01*
X95432619Y-66214761D01*
X95385000Y-66167142D01*
X95337380Y-66071904D01*
X95337380Y-65833809D01*
X95385000Y-65690952D01*
X93099000Y-67817904D02*
X93051380Y-67913142D01*
X93051380Y-68056000D01*
X93099000Y-68198857D01*
X93194238Y-68294095D01*
X93289476Y-68341714D01*
X93479952Y-68389333D01*
X93622809Y-68389333D01*
X93813285Y-68341714D01*
X93908523Y-68294095D01*
X94003761Y-68198857D01*
X94051380Y-68056000D01*
X94051380Y-67960761D01*
X94003761Y-67817904D01*
X93956142Y-67770285D01*
X93622809Y-67770285D01*
X93622809Y-67960761D01*
X94051380Y-67341714D02*
X93051380Y-67341714D01*
X94051380Y-66770285D01*
X93051380Y-66770285D01*
X94051380Y-66294095D02*
X93051380Y-66294095D01*
X93051380Y-66056000D01*
X93099000Y-65913142D01*
X93194238Y-65817904D01*
X93289476Y-65770285D01*
X93479952Y-65722666D01*
X93622809Y-65722666D01*
X93813285Y-65770285D01*
X93908523Y-65817904D01*
X94003761Y-65913142D01*
X94051380Y-66056000D01*
X94051380Y-66294095D01*
X90701761Y-67627333D02*
X90749380Y-67484476D01*
X90749380Y-67246380D01*
X90701761Y-67151142D01*
X90654142Y-67103523D01*
X90558904Y-67055904D01*
X90463666Y-67055904D01*
X90368428Y-67103523D01*
X90320809Y-67151142D01*
X90273190Y-67246380D01*
X90225571Y-67436857D01*
X90177952Y-67532095D01*
X90130333Y-67579714D01*
X90035095Y-67627333D01*
X89939857Y-67627333D01*
X89844619Y-67579714D01*
X89797000Y-67532095D01*
X89749380Y-67436857D01*
X89749380Y-67198761D01*
X89797000Y-67055904D01*
X89749380Y-66722571D02*
X90749380Y-66484476D01*
X90035095Y-66294000D01*
X90749380Y-66103523D01*
X89749380Y-65865428D01*
X90749380Y-64960666D02*
X90749380Y-65532095D01*
X90749380Y-65246380D02*
X89749380Y-65246380D01*
X89892238Y-65341619D01*
X89987476Y-65436857D01*
X90035095Y-65532095D01*
X76541380Y-67873333D02*
X77541380Y-67540000D01*
X76541380Y-67206666D01*
X77017571Y-66540000D02*
X77065190Y-66397142D01*
X77112809Y-66349523D01*
X77208047Y-66301904D01*
X77350904Y-66301904D01*
X77446142Y-66349523D01*
X77493761Y-66397142D01*
X77541380Y-66492380D01*
X77541380Y-66873333D01*
X76541380Y-66873333D01*
X76541380Y-66540000D01*
X76589000Y-66444761D01*
X76636619Y-66397142D01*
X76731857Y-66349523D01*
X76827095Y-66349523D01*
X76922333Y-66397142D01*
X76969952Y-66444761D01*
X77017571Y-66540000D01*
X77017571Y-66873333D01*
X76541380Y-65873333D02*
X77350904Y-65873333D01*
X77446142Y-65825714D01*
X77493761Y-65778095D01*
X77541380Y-65682857D01*
X77541380Y-65492380D01*
X77493761Y-65397142D01*
X77446142Y-65349523D01*
X77350904Y-65301904D01*
X76541380Y-65301904D01*
X77493761Y-64873333D02*
X77541380Y-64730476D01*
X77541380Y-64492380D01*
X77493761Y-64397142D01*
X77446142Y-64349523D01*
X77350904Y-64301904D01*
X77255666Y-64301904D01*
X77160428Y-64349523D01*
X77112809Y-64397142D01*
X77065190Y-64492380D01*
X77017571Y-64682857D01*
X76969952Y-64778095D01*
X76922333Y-64825714D01*
X76827095Y-64873333D01*
X76731857Y-64873333D01*
X76636619Y-64825714D01*
X76589000Y-64778095D01*
X76541380Y-64682857D01*
X76541380Y-64444761D01*
X76589000Y-64301904D01*
X115236761Y-68905380D02*
X114760571Y-68905380D01*
X114760571Y-67905380D01*
X115712952Y-68905380D02*
X115617714Y-68857761D01*
X115570095Y-68810142D01*
X115522476Y-68714904D01*
X115522476Y-68429190D01*
X115570095Y-68333952D01*
X115617714Y-68286333D01*
X115712952Y-68238714D01*
X115855809Y-68238714D01*
X115951047Y-68286333D01*
X115998666Y-68333952D01*
X116046285Y-68429190D01*
X116046285Y-68714904D01*
X115998666Y-68810142D01*
X115951047Y-68857761D01*
X115855809Y-68905380D01*
X115712952Y-68905380D01*
X117046285Y-68905380D02*
X116712952Y-68429190D01*
X116474857Y-68905380D02*
X116474857Y-67905380D01*
X116855809Y-67905380D01*
X116951047Y-67953000D01*
X116998666Y-68000619D01*
X117046285Y-68095857D01*
X117046285Y-68238714D01*
X116998666Y-68333952D01*
X116951047Y-68381571D01*
X116855809Y-68429190D01*
X116474857Y-68429190D01*
X117903428Y-68905380D02*
X117903428Y-68381571D01*
X117855809Y-68286333D01*
X117760571Y-68238714D01*
X117570095Y-68238714D01*
X117474857Y-68286333D01*
X117903428Y-68857761D02*
X117808190Y-68905380D01*
X117570095Y-68905380D01*
X117474857Y-68857761D01*
X117427238Y-68762523D01*
X117427238Y-68667285D01*
X117474857Y-68572047D01*
X117570095Y-68524428D01*
X117808190Y-68524428D01*
X117903428Y-68476809D01*
X109926380Y-65500166D02*
X109450190Y-65833500D01*
X109926380Y-66071595D02*
X108926380Y-66071595D01*
X108926380Y-65690642D01*
X108974000Y-65595404D01*
X109021619Y-65547785D01*
X109116857Y-65500166D01*
X109259714Y-65500166D01*
X109354952Y-65547785D01*
X109402571Y-65595404D01*
X109450190Y-65690642D01*
X109450190Y-66071595D01*
X108926380Y-65166833D02*
X109926380Y-64500166D01*
X108926380Y-64500166D02*
X109926380Y-65166833D01*
X109926380Y-64119214D02*
X108926380Y-64119214D01*
X108926380Y-63881119D01*
X108974000Y-63738261D01*
X109069238Y-63643023D01*
X109164476Y-63595404D01*
X109354952Y-63547785D01*
X109497809Y-63547785D01*
X109688285Y-63595404D01*
X109783523Y-63643023D01*
X109878761Y-63738261D01*
X109926380Y-63881119D01*
X109926380Y-64119214D01*
X112736380Y-66793904D02*
X112736380Y-66222476D01*
X113736380Y-66508190D02*
X112736380Y-66508190D01*
X112736380Y-65984380D02*
X113736380Y-65317714D01*
X112736380Y-65317714D02*
X113736380Y-65984380D01*
X113736380Y-64936761D02*
X112736380Y-64936761D01*
X112736380Y-64698666D01*
X112784000Y-64555809D01*
X112879238Y-64460571D01*
X112974476Y-64412952D01*
X113164952Y-64365333D01*
X113307809Y-64365333D01*
X113498285Y-64412952D01*
X113593523Y-64460571D01*
X113688761Y-64555809D01*
X113736380Y-64698666D01*
X113736380Y-64936761D01*
X104735380Y-66992333D02*
X105735380Y-66659000D01*
X104735380Y-66325666D01*
X105735380Y-65992333D02*
X104735380Y-65992333D01*
X104735380Y-65754238D01*
X104783000Y-65611380D01*
X104878238Y-65516142D01*
X104973476Y-65468523D01*
X105163952Y-65420904D01*
X105306809Y-65420904D01*
X105497285Y-65468523D01*
X105592523Y-65516142D01*
X105687761Y-65611380D01*
X105735380Y-65754238D01*
X105735380Y-65992333D01*
X105735380Y-64992333D02*
X104735380Y-64992333D01*
X104735380Y-64754238D01*
X104783000Y-64611380D01*
X104878238Y-64516142D01*
X104973476Y-64468523D01*
X105163952Y-64420904D01*
X105306809Y-64420904D01*
X105497285Y-64468523D01*
X105592523Y-64516142D01*
X105687761Y-64611380D01*
X105735380Y-64754238D01*
X105735380Y-64992333D01*
X115324000Y-66547904D02*
X115276380Y-66643142D01*
X115276380Y-66786000D01*
X115324000Y-66928857D01*
X115419238Y-67024095D01*
X115514476Y-67071714D01*
X115704952Y-67119333D01*
X115847809Y-67119333D01*
X116038285Y-67071714D01*
X116133523Y-67024095D01*
X116228761Y-66928857D01*
X116276380Y-66786000D01*
X116276380Y-66690761D01*
X116228761Y-66547904D01*
X116181142Y-66500285D01*
X115847809Y-66500285D01*
X115847809Y-66690761D01*
X116276380Y-66071714D02*
X115276380Y-66071714D01*
X116276380Y-65500285D01*
X115276380Y-65500285D01*
X116276380Y-65024095D02*
X115276380Y-65024095D01*
X115276380Y-64786000D01*
X115324000Y-64643142D01*
X115419238Y-64547904D01*
X115514476Y-64500285D01*
X115704952Y-64452666D01*
X115847809Y-64452666D01*
X116038285Y-64500285D01*
X116133523Y-64547904D01*
X116228761Y-64643142D01*
X116276380Y-64786000D01*
X116276380Y-65024095D01*
X89304761Y-107870476D02*
X89352380Y-107727619D01*
X89352380Y-107489523D01*
X89304761Y-107394285D01*
X89257142Y-107346666D01*
X89161904Y-107299047D01*
X89066666Y-107299047D01*
X88971428Y-107346666D01*
X88923809Y-107394285D01*
X88876190Y-107489523D01*
X88828571Y-107680000D01*
X88780952Y-107775238D01*
X88733333Y-107822857D01*
X88638095Y-107870476D01*
X88542857Y-107870476D01*
X88447619Y-107822857D01*
X88400000Y-107775238D01*
X88352380Y-107680000D01*
X88352380Y-107441904D01*
X88400000Y-107299047D01*
X89257142Y-106299047D02*
X89304761Y-106346666D01*
X89352380Y-106489523D01*
X89352380Y-106584761D01*
X89304761Y-106727619D01*
X89209523Y-106822857D01*
X89114285Y-106870476D01*
X88923809Y-106918095D01*
X88780952Y-106918095D01*
X88590476Y-106870476D01*
X88495238Y-106822857D01*
X88400000Y-106727619D01*
X88352380Y-106584761D01*
X88352380Y-106489523D01*
X88400000Y-106346666D01*
X88447619Y-106299047D01*
X89352380Y-105394285D02*
X89352380Y-105870476D01*
X88352380Y-105870476D01*
X86764761Y-107894285D02*
X86812380Y-107751428D01*
X86812380Y-107513333D01*
X86764761Y-107418095D01*
X86717142Y-107370476D01*
X86621904Y-107322857D01*
X86526666Y-107322857D01*
X86431428Y-107370476D01*
X86383809Y-107418095D01*
X86336190Y-107513333D01*
X86288571Y-107703809D01*
X86240952Y-107799047D01*
X86193333Y-107846666D01*
X86098095Y-107894285D01*
X86002857Y-107894285D01*
X85907619Y-107846666D01*
X85860000Y-107799047D01*
X85812380Y-107703809D01*
X85812380Y-107465714D01*
X85860000Y-107322857D01*
X86812380Y-106894285D02*
X85812380Y-106894285D01*
X85812380Y-106656190D01*
X85860000Y-106513333D01*
X85955238Y-106418095D01*
X86050476Y-106370476D01*
X86240952Y-106322857D01*
X86383809Y-106322857D01*
X86574285Y-106370476D01*
X86669523Y-106418095D01*
X86764761Y-106513333D01*
X86812380Y-106656190D01*
X86812380Y-106894285D01*
X86526666Y-105941904D02*
X86526666Y-105465714D01*
X86812380Y-106037142D02*
X85812380Y-105703809D01*
X86812380Y-105370476D01*
X83272380Y-108013333D02*
X84272380Y-107680000D01*
X83272380Y-107346666D01*
X84177142Y-106441904D02*
X84224761Y-106489523D01*
X84272380Y-106632380D01*
X84272380Y-106727619D01*
X84224761Y-106870476D01*
X84129523Y-106965714D01*
X84034285Y-107013333D01*
X83843809Y-107060952D01*
X83700952Y-107060952D01*
X83510476Y-107013333D01*
X83415238Y-106965714D01*
X83320000Y-106870476D01*
X83272380Y-106727619D01*
X83272380Y-106632380D01*
X83320000Y-106489523D01*
X83367619Y-106441904D01*
X84177142Y-105441904D02*
X84224761Y-105489523D01*
X84272380Y-105632380D01*
X84272380Y-105727619D01*
X84224761Y-105870476D01*
X84129523Y-105965714D01*
X84034285Y-106013333D01*
X83843809Y-106060952D01*
X83700952Y-106060952D01*
X83510476Y-106013333D01*
X83415238Y-105965714D01*
X83320000Y-105870476D01*
X83272380Y-105727619D01*
X83272380Y-105632380D01*
X83320000Y-105489523D01*
X83367619Y-105441904D01*
X91591142Y-107767380D02*
X91591142Y-106767380D01*
X91829238Y-106767380D01*
X91972095Y-106815000D01*
X92067333Y-106910238D01*
X92114952Y-107005476D01*
X92162571Y-107195952D01*
X92162571Y-107338809D01*
X92114952Y-107529285D01*
X92067333Y-107624523D01*
X91972095Y-107719761D01*
X91829238Y-107767380D01*
X91591142Y-107767380D01*
X92543523Y-107719761D02*
X92686380Y-107767380D01*
X92924476Y-107767380D01*
X93019714Y-107719761D01*
X93067333Y-107672142D01*
X93114952Y-107576904D01*
X93114952Y-107481666D01*
X93067333Y-107386428D01*
X93019714Y-107338809D01*
X92924476Y-107291190D01*
X92734000Y-107243571D01*
X92638761Y-107195952D01*
X92591142Y-107148333D01*
X92543523Y-107053095D01*
X92543523Y-106957857D01*
X92591142Y-106862619D01*
X92638761Y-106815000D01*
X92734000Y-106767380D01*
X92972095Y-106767380D01*
X93114952Y-106815000D01*
X93448285Y-106767380D02*
X94067333Y-106767380D01*
X93734000Y-107148333D01*
X93876857Y-107148333D01*
X93972095Y-107195952D01*
X94019714Y-107243571D01*
X94067333Y-107338809D01*
X94067333Y-107576904D01*
X94019714Y-107672142D01*
X93972095Y-107719761D01*
X93876857Y-107767380D01*
X93591142Y-107767380D01*
X93495904Y-107719761D01*
X93448285Y-107672142D01*
X94448285Y-106862619D02*
X94495904Y-106815000D01*
X94591142Y-106767380D01*
X94829238Y-106767380D01*
X94924476Y-106815000D01*
X94972095Y-106862619D01*
X95019714Y-106957857D01*
X95019714Y-107053095D01*
X94972095Y-107195952D01*
X94400666Y-107767380D01*
X95019714Y-107767380D01*
X95353047Y-106767380D02*
X95972095Y-106767380D01*
X95638761Y-107148333D01*
X95781619Y-107148333D01*
X95876857Y-107195952D01*
X95924476Y-107243571D01*
X95972095Y-107338809D01*
X95972095Y-107576904D01*
X95924476Y-107672142D01*
X95876857Y-107719761D01*
X95781619Y-107767380D01*
X95495904Y-107767380D01*
X95400666Y-107719761D01*
X95353047Y-107672142D01*
X96924476Y-107767380D02*
X96353047Y-107767380D01*
X96638761Y-107767380D02*
X96638761Y-106767380D01*
X96543523Y-106910238D01*
X96448285Y-107005476D01*
X96353047Y-107053095D01*
X79954500Y-108394404D02*
X79906880Y-108489642D01*
X79906880Y-108632500D01*
X79954500Y-108775357D01*
X80049738Y-108870595D01*
X80144976Y-108918214D01*
X80335452Y-108965833D01*
X80478309Y-108965833D01*
X80668785Y-108918214D01*
X80764023Y-108870595D01*
X80859261Y-108775357D01*
X80906880Y-108632500D01*
X80906880Y-108537261D01*
X80859261Y-108394404D01*
X80811642Y-108346785D01*
X80478309Y-108346785D01*
X80478309Y-108537261D01*
X80906880Y-107918214D02*
X79906880Y-107918214D01*
X80906880Y-107346785D01*
X79906880Y-107346785D01*
X80906880Y-106870595D02*
X79906880Y-106870595D01*
X79906880Y-106632500D01*
X79954500Y-106489642D01*
X80049738Y-106394404D01*
X80144976Y-106346785D01*
X80335452Y-106299166D01*
X80478309Y-106299166D01*
X80668785Y-106346785D01*
X80764023Y-106394404D01*
X80859261Y-106489642D01*
X80906880Y-106632500D01*
X80906880Y-106870595D01*
X105227380Y-107608666D02*
X104751190Y-107942000D01*
X105227380Y-108180095D02*
X104227380Y-108180095D01*
X104227380Y-107799142D01*
X104275000Y-107703904D01*
X104322619Y-107656285D01*
X104417857Y-107608666D01*
X104560714Y-107608666D01*
X104655952Y-107656285D01*
X104703571Y-107703904D01*
X104751190Y-107799142D01*
X104751190Y-108180095D01*
X104227380Y-107275333D02*
X105227380Y-106608666D01*
X104227380Y-106608666D02*
X105227380Y-107275333D01*
X106640380Y-108076904D02*
X106640380Y-107505476D01*
X107640380Y-107791190D02*
X106640380Y-107791190D01*
X106640380Y-107267380D02*
X107640380Y-106600714D01*
X106640380Y-106600714D02*
X107640380Y-107267380D01*
X113228500Y-107949904D02*
X113180880Y-108045142D01*
X113180880Y-108188000D01*
X113228500Y-108330857D01*
X113323738Y-108426095D01*
X113418976Y-108473714D01*
X113609452Y-108521333D01*
X113752309Y-108521333D01*
X113942785Y-108473714D01*
X114038023Y-108426095D01*
X114133261Y-108330857D01*
X114180880Y-108188000D01*
X114180880Y-108092761D01*
X114133261Y-107949904D01*
X114085642Y-107902285D01*
X113752309Y-107902285D01*
X113752309Y-108092761D01*
X114180880Y-107473714D02*
X113180880Y-107473714D01*
X114180880Y-106902285D01*
X113180880Y-106902285D01*
X114180880Y-106426095D02*
X113180880Y-106426095D01*
X113180880Y-106188000D01*
X113228500Y-106045142D01*
X113323738Y-105949904D01*
X113418976Y-105902285D01*
X113609452Y-105854666D01*
X113752309Y-105854666D01*
X113942785Y-105902285D01*
X114038023Y-105949904D01*
X114133261Y-106045142D01*
X114180880Y-106188000D01*
X114180880Y-106426095D01*
X103219571Y-104957571D02*
X102886238Y-104957571D01*
X102886238Y-105481380D02*
X102886238Y-104481380D01*
X103362428Y-104481380D01*
X103600523Y-104481380D02*
X104171952Y-104481380D01*
X103886238Y-105481380D02*
X103886238Y-104481380D01*
X104457666Y-104576619D02*
X104505285Y-104529000D01*
X104600523Y-104481380D01*
X104838619Y-104481380D01*
X104933857Y-104529000D01*
X104981476Y-104576619D01*
X105029095Y-104671857D01*
X105029095Y-104767095D01*
X104981476Y-104909952D01*
X104410047Y-105481380D01*
X105029095Y-105481380D01*
X105362428Y-104481380D02*
X105981476Y-104481380D01*
X105648142Y-104862333D01*
X105791000Y-104862333D01*
X105886238Y-104909952D01*
X105933857Y-104957571D01*
X105981476Y-105052809D01*
X105981476Y-105290904D01*
X105933857Y-105386142D01*
X105886238Y-105433761D01*
X105791000Y-105481380D01*
X105505285Y-105481380D01*
X105410047Y-105433761D01*
X105362428Y-105386142D01*
X106362428Y-104576619D02*
X106410047Y-104529000D01*
X106505285Y-104481380D01*
X106743380Y-104481380D01*
X106838619Y-104529000D01*
X106886238Y-104576619D01*
X106933857Y-104671857D01*
X106933857Y-104767095D01*
X106886238Y-104909952D01*
X106314809Y-105481380D01*
X106933857Y-105481380D01*
X107933857Y-105481380D02*
X107600523Y-105005190D01*
X107362428Y-105481380D02*
X107362428Y-104481380D01*
X107743380Y-104481380D01*
X107838619Y-104529000D01*
X107886238Y-104576619D01*
X107933857Y-104671857D01*
X107933857Y-104814714D01*
X107886238Y-104909952D01*
X107838619Y-104957571D01*
X107743380Y-105005190D01*
X107362428Y-105005190D01*
X108838619Y-105481380D02*
X108362428Y-105481380D01*
X108362428Y-104481380D01*
X163139380Y-80819285D02*
X162139380Y-80819285D01*
X162615571Y-80819285D02*
X162615571Y-80247857D01*
X163139380Y-80247857D02*
X162139380Y-80247857D01*
X163044142Y-79200238D02*
X163091761Y-79247857D01*
X163139380Y-79390714D01*
X163139380Y-79485952D01*
X163091761Y-79628809D01*
X162996523Y-79724047D01*
X162901285Y-79771666D01*
X162710809Y-79819285D01*
X162567952Y-79819285D01*
X162377476Y-79771666D01*
X162282238Y-79724047D01*
X162187000Y-79628809D01*
X162139380Y-79485952D01*
X162139380Y-79390714D01*
X162187000Y-79247857D01*
X162234619Y-79200238D01*
X163091761Y-78819285D02*
X163139380Y-78676428D01*
X163139380Y-78438333D01*
X163091761Y-78343095D01*
X163044142Y-78295476D01*
X162948904Y-78247857D01*
X162853666Y-78247857D01*
X162758428Y-78295476D01*
X162710809Y-78343095D01*
X162663190Y-78438333D01*
X162615571Y-78628809D01*
X162567952Y-78724047D01*
X162520333Y-78771666D01*
X162425095Y-78819285D01*
X162329857Y-78819285D01*
X162234619Y-78771666D01*
X162187000Y-78724047D01*
X162139380Y-78628809D01*
X162139380Y-78390714D01*
X162187000Y-78247857D01*
X163139380Y-77247857D02*
X162663190Y-77581190D01*
X163139380Y-77819285D02*
X162139380Y-77819285D01*
X162139380Y-77438333D01*
X162187000Y-77343095D01*
X162234619Y-77295476D01*
X162329857Y-77247857D01*
X162472714Y-77247857D01*
X162567952Y-77295476D01*
X162615571Y-77343095D01*
X162663190Y-77438333D01*
X162663190Y-77819285D01*
X162139380Y-76628809D02*
X162139380Y-76533571D01*
X162187000Y-76438333D01*
X162234619Y-76390714D01*
X162329857Y-76343095D01*
X162520333Y-76295476D01*
X162758428Y-76295476D01*
X162948904Y-76343095D01*
X163044142Y-76390714D01*
X163091761Y-76438333D01*
X163139380Y-76533571D01*
X163139380Y-76628809D01*
X163091761Y-76724047D01*
X163044142Y-76771666D01*
X162948904Y-76819285D01*
X162758428Y-76866904D01*
X162520333Y-76866904D01*
X162329857Y-76819285D01*
X162234619Y-76771666D01*
X162187000Y-76724047D01*
X162139380Y-76628809D01*
X162472714Y-75438333D02*
X163139380Y-75438333D01*
X162091761Y-75676428D02*
X162806047Y-75914523D01*
X162806047Y-75295476D01*
X157416666Y-90892380D02*
X157750000Y-91892380D01*
X158083333Y-90892380D01*
X158988095Y-91797142D02*
X158940476Y-91844761D01*
X158797619Y-91892380D01*
X158702380Y-91892380D01*
X158559523Y-91844761D01*
X158464285Y-91749523D01*
X158416666Y-91654285D01*
X158369047Y-91463809D01*
X158369047Y-91320952D01*
X158416666Y-91130476D01*
X158464285Y-91035238D01*
X158559523Y-90940000D01*
X158702380Y-90892380D01*
X158797619Y-90892380D01*
X158940476Y-90940000D01*
X158988095Y-90987619D01*
X159988095Y-91797142D02*
X159940476Y-91844761D01*
X159797619Y-91892380D01*
X159702380Y-91892380D01*
X159559523Y-91844761D01*
X159464285Y-91749523D01*
X159416666Y-91654285D01*
X159369047Y-91463809D01*
X159369047Y-91320952D01*
X159416666Y-91130476D01*
X159464285Y-91035238D01*
X159559523Y-90940000D01*
X159702380Y-90892380D01*
X159797619Y-90892380D01*
X159940476Y-90940000D01*
X159988095Y-90987619D01*
X86828380Y-67151095D02*
X86828380Y-66532047D01*
X87209333Y-66865380D01*
X87209333Y-66722523D01*
X87256952Y-66627285D01*
X87304571Y-66579666D01*
X87399809Y-66532047D01*
X87637904Y-66532047D01*
X87733142Y-66579666D01*
X87780761Y-66627285D01*
X87828380Y-66722523D01*
X87828380Y-67008238D01*
X87780761Y-67103476D01*
X87733142Y-67151095D01*
X86828380Y-66246333D02*
X87828380Y-65913000D01*
X86828380Y-65579666D01*
X86828380Y-65341571D02*
X86828380Y-64722523D01*
X87209333Y-65055857D01*
X87209333Y-64913000D01*
X87256952Y-64817761D01*
X87304571Y-64770142D01*
X87399809Y-64722523D01*
X87637904Y-64722523D01*
X87733142Y-64770142D01*
X87780761Y-64817761D01*
X87828380Y-64913000D01*
X87828380Y-65198714D01*
X87780761Y-65293952D01*
X87733142Y-65341571D01*
X83701000Y-66547904D02*
X83653380Y-66643142D01*
X83653380Y-66786000D01*
X83701000Y-66928857D01*
X83796238Y-67024095D01*
X83891476Y-67071714D01*
X84081952Y-67119333D01*
X84224809Y-67119333D01*
X84415285Y-67071714D01*
X84510523Y-67024095D01*
X84605761Y-66928857D01*
X84653380Y-66786000D01*
X84653380Y-66690761D01*
X84605761Y-66547904D01*
X84558142Y-66500285D01*
X84224809Y-66500285D01*
X84224809Y-66690761D01*
X84653380Y-66071714D02*
X83653380Y-66071714D01*
X84653380Y-65500285D01*
X83653380Y-65500285D01*
X84653380Y-65024095D02*
X83653380Y-65024095D01*
X83653380Y-64786000D01*
X83701000Y-64643142D01*
X83796238Y-64547904D01*
X83891476Y-64500285D01*
X84081952Y-64452666D01*
X84224809Y-64452666D01*
X84415285Y-64500285D01*
X84510523Y-64547904D01*
X84605761Y-64643142D01*
X84653380Y-64786000D01*
X84653380Y-65024095D01*
X79565714Y-64349380D02*
X79899047Y-65349380D01*
X80232380Y-64349380D01*
X80518095Y-65301761D02*
X80660952Y-65349380D01*
X80899047Y-65349380D01*
X80994285Y-65301761D01*
X81041904Y-65254142D01*
X81089523Y-65158904D01*
X81089523Y-65063666D01*
X81041904Y-64968428D01*
X80994285Y-64920809D01*
X80899047Y-64873190D01*
X80708571Y-64825571D01*
X80613333Y-64777952D01*
X80565714Y-64730333D01*
X80518095Y-64635095D01*
X80518095Y-64539857D01*
X80565714Y-64444619D01*
X80613333Y-64397000D01*
X80708571Y-64349380D01*
X80946666Y-64349380D01*
X81089523Y-64397000D01*
X81708571Y-64873190D02*
X81708571Y-65349380D01*
X81375238Y-64349380D02*
X81708571Y-64873190D01*
X82041904Y-64349380D01*
X82327619Y-65301761D02*
X82470476Y-65349380D01*
X82708571Y-65349380D01*
X82803809Y-65301761D01*
X82851428Y-65254142D01*
X82899047Y-65158904D01*
X82899047Y-65063666D01*
X82851428Y-64968428D01*
X82803809Y-64920809D01*
X82708571Y-64873190D01*
X82518095Y-64825571D01*
X82422857Y-64777952D01*
X82375238Y-64730333D01*
X82327619Y-64635095D01*
X82327619Y-64539857D01*
X82375238Y-64444619D01*
X82422857Y-64397000D01*
X82518095Y-64349380D01*
X82756190Y-64349380D01*
X82899047Y-64397000D01*
D11*
%TO.C,U4*%
X81165700Y-80759300D02*
X76873100Y-80733900D01*
X81241900Y-87820500D02*
X81241900Y-80810100D01*
X76746100Y-87820500D02*
X81241900Y-87820500D01*
X76771500Y-95364300D02*
X78625700Y-95364300D01*
X76771500Y-73342500D02*
X76771500Y-95364300D01*
X128536700Y-73342500D02*
X76771500Y-73342500D01*
X128587500Y-95364300D02*
X128536700Y-73342500D01*
X78549500Y-95364300D02*
X128587500Y-95364300D01*
%TO.C,J4*%
X157988000Y-65278000D02*
X131572000Y-65278000D01*
X131572000Y-65278000D02*
X131572000Y-61722000D01*
X131572000Y-61722000D02*
X157988000Y-61722000D01*
X157988000Y-61722000D02*
X157988000Y-65278000D01*
%TO.C,U2*%
X160782000Y-93281500D02*
X160782000Y-82042000D01*
X160782000Y-82042000D02*
X164338000Y-82042000D01*
X164338000Y-82042000D02*
X164338000Y-93281500D01*
X164338000Y-93281500D02*
X160782000Y-93281500D01*
%TO.C,J5*%
X153162000Y-99568000D02*
X153162000Y-73152000D01*
X153162000Y-73152000D02*
X156718000Y-73152000D01*
X156718000Y-73152000D02*
X156718000Y-99568000D01*
X156718000Y-99568000D02*
X153162000Y-99568000D01*
%TO.C,J2*%
X157988000Y-110998000D02*
X131572000Y-110998000D01*
X131572000Y-110998000D02*
X131572000Y-107442000D01*
X131572000Y-107442000D02*
X157988000Y-107442000D01*
X157988000Y-107442000D02*
X157988000Y-110998000D01*
%TO.C,J1*%
X130302000Y-99568000D02*
X130302000Y-73152000D01*
X130302000Y-73152000D02*
X133858000Y-73152000D01*
X133858000Y-73152000D02*
X133858000Y-99568000D01*
X133858000Y-99568000D02*
X130302000Y-99568000D01*
%TO.C,J3*%
X88201500Y-64008000D02*
X77851000Y-64008000D01*
X76962000Y-63119000D02*
X76962000Y-60452000D01*
X76962000Y-60452000D02*
X88201500Y-60452000D01*
X88201500Y-60452000D02*
X88201500Y-64008000D01*
X77851000Y-64008000D02*
X76962000Y-63119000D01*
%TO.C,J6*%
X88392000Y-60452000D02*
X102108000Y-60452000D01*
X88392000Y-64008000D02*
X88392000Y-60452000D01*
X102108000Y-65278000D02*
X89916000Y-65278000D01*
X89916000Y-65278000D02*
X88392000Y-64008000D01*
X102108000Y-60452000D02*
X102108000Y-65278000D01*
%TO.C,U6*%
X118110000Y-61722000D02*
X116840000Y-60452000D01*
X118110000Y-64008000D02*
X118110000Y-61722000D01*
X103124000Y-64008000D02*
X118110000Y-64008000D01*
X103124000Y-60452000D02*
X103124000Y-64008000D01*
X116840000Y-60452000D02*
X103124000Y-60452000D01*
%TO.C,U5*%
X98806000Y-112141000D02*
X77851000Y-112141000D01*
X98806000Y-108585000D02*
X76200000Y-108585000D01*
X77851000Y-112141000D02*
X76200000Y-110617000D01*
X76200000Y-110617000D02*
X76200000Y-108585000D01*
X98806000Y-112141000D02*
X98806000Y-108585000D01*
%TO.C,U3*%
X99060000Y-112141000D02*
X99060000Y-108585000D01*
X117856000Y-112141000D02*
X99060000Y-112141000D01*
X117856000Y-108585000D02*
X117856000Y-112141000D01*
X99060000Y-108585000D02*
X117856000Y-108585000D01*
%TO.C,U7*%
X126260000Y-60380000D02*
X122660000Y-60380000D01*
X122621522Y-60391522D02*
G75*
G03*
X124460000Y-64830000I1838478J-1838478D01*
G01*
X126298478Y-60391522D02*
G75*
G02*
X124460000Y-64830000I-1838478J-1838478D01*
G01*
%TO.C,R5*%
X102970000Y-69850000D02*
G75*
G03*
X102970000Y-69850000I-1370000J0D01*
G01*
X102970000Y-69850000D02*
X103040000Y-69850000D01*
%TO.C,R3*%
X102970000Y-99060000D02*
G75*
G03*
X102970000Y-99060000I-1370000J0D01*
G01*
X102970000Y-99060000D02*
X103040000Y-99060000D01*
%TO.C,R2*%
X97699500Y-99060000D02*
G75*
G03*
X97699500Y-99060000I-1370000J0D01*
G01*
X97699500Y-99060000D02*
X97769500Y-99060000D01*
%TO.C,R1*%
X92365500Y-99060000D02*
G75*
G03*
X92365500Y-99060000I-1370000J0D01*
G01*
X92365500Y-99060000D02*
X92435500Y-99060000D01*
%TO.C,D1*%
X106025000Y-97515000D02*
X106025000Y-97980000D01*
X106025000Y-100140000D02*
X106025000Y-100605000D01*
X110839479Y-100140429D02*
G75*
G02*
X106330316Y-100140000I-2254479J1080429D01*
G01*
X110839479Y-97979571D02*
G75*
G03*
X106330316Y-97980000I-2254479J-1080429D01*
G01*
X111372815Y-100140827D02*
G75*
G02*
X106025000Y-100604830I-2787815J1080827D01*
G01*
X111372815Y-97979173D02*
G75*
G03*
X106025000Y-97515170I-2787815J-1080827D01*
G01*
%TO.C,R6*%
X108177000Y-69850000D02*
G75*
G03*
X108177000Y-69850000I-1370000J0D01*
G01*
X108177000Y-69850000D02*
X108247000Y-69850000D01*
%TO.C,U1*%
X128320800Y-109982000D02*
X128320800Y-107696000D01*
X120590000Y-107696000D02*
X128320800Y-107696000D01*
X120590000Y-110550000D02*
X120590000Y-107696000D01*
X127508000Y-110591600D02*
X120599200Y-110591600D01*
X127508000Y-110591600D02*
X128320800Y-109982000D01*
X118110000Y-111760000D02*
X129413000Y-111760000D01*
X130810000Y-110871000D02*
X130810000Y-99949000D01*
X130810000Y-99949000D02*
X118110000Y-99949000D01*
X118110000Y-99949000D02*
X118110000Y-111760000D01*
X129413000Y-111760000D02*
X130810000Y-110871000D01*
%TO.C,R4*%
X88174500Y-98298000D02*
G75*
G03*
X88174500Y-98298000I-1370000J0D01*
G01*
X85434500Y-98298000D02*
X85364500Y-98298000D01*
%TO.C,D2*%
X79085000Y-96998500D02*
X79085000Y-97154500D01*
X79085000Y-99314500D02*
X79085000Y-99470500D01*
X81686130Y-99314337D02*
G75*
G02*
X79604039Y-99314500I-1041130J1079837D01*
G01*
X81686130Y-97154663D02*
G75*
G03*
X79604039Y-97154500I-1041130J-1079837D01*
G01*
X82317335Y-99313108D02*
G75*
G02*
X79085000Y-99470016I-1672335J1078608D01*
G01*
X82317335Y-97155892D02*
G75*
G03*
X79085000Y-96998984I-1672335J-1078608D01*
G01*
%TO.C,U4*%
D10*
X76581095Y-71397880D02*
X76581095Y-72207404D01*
X76628714Y-72302642D01*
X76676333Y-72350261D01*
X76771571Y-72397880D01*
X76962047Y-72397880D01*
X77057285Y-72350261D01*
X77104904Y-72302642D01*
X77152523Y-72207404D01*
X77152523Y-71397880D01*
X78057285Y-71731214D02*
X78057285Y-72397880D01*
X77819190Y-71350261D02*
X77581095Y-72064547D01*
X78200142Y-72064547D01*
%TO.C,J4*%
X129968666Y-62190380D02*
X129968666Y-62904666D01*
X129921047Y-63047523D01*
X129825809Y-63142761D01*
X129682952Y-63190380D01*
X129587714Y-63190380D01*
X130873428Y-62523714D02*
X130873428Y-63190380D01*
X130635333Y-62142761D02*
X130397238Y-62857047D01*
X131016285Y-62857047D01*
%TO.C,U2*%
X162496595Y-93686380D02*
X162496595Y-94495904D01*
X162544214Y-94591142D01*
X162591833Y-94638761D01*
X162687071Y-94686380D01*
X162877547Y-94686380D01*
X162972785Y-94638761D01*
X163020404Y-94591142D01*
X163068023Y-94495904D01*
X163068023Y-93686380D01*
X163496595Y-93781619D02*
X163544214Y-93734000D01*
X163639452Y-93686380D01*
X163877547Y-93686380D01*
X163972785Y-93734000D01*
X164020404Y-93781619D01*
X164068023Y-93876857D01*
X164068023Y-93972095D01*
X164020404Y-94114952D01*
X163448976Y-94686380D01*
X164068023Y-94686380D01*
%TO.C,J5*%
X154733666Y-71588380D02*
X154733666Y-72302666D01*
X154686047Y-72445523D01*
X154590809Y-72540761D01*
X154447952Y-72588380D01*
X154352714Y-72588380D01*
X155686047Y-71588380D02*
X155209857Y-71588380D01*
X155162238Y-72064571D01*
X155209857Y-72016952D01*
X155305095Y-71969333D01*
X155543190Y-71969333D01*
X155638428Y-72016952D01*
X155686047Y-72064571D01*
X155733666Y-72159809D01*
X155733666Y-72397904D01*
X155686047Y-72493142D01*
X155638428Y-72540761D01*
X155543190Y-72588380D01*
X155305095Y-72588380D01*
X155209857Y-72540761D01*
X155162238Y-72493142D01*
%TO.C,J2*%
X158924666Y-108672380D02*
X158924666Y-109386666D01*
X158877047Y-109529523D01*
X158781809Y-109624761D01*
X158638952Y-109672380D01*
X158543714Y-109672380D01*
X159353238Y-108767619D02*
X159400857Y-108720000D01*
X159496095Y-108672380D01*
X159734190Y-108672380D01*
X159829428Y-108720000D01*
X159877047Y-108767619D01*
X159924666Y-108862857D01*
X159924666Y-108958095D01*
X159877047Y-109100952D01*
X159305619Y-109672380D01*
X159924666Y-109672380D01*
%TO.C,J1*%
X132127666Y-100163380D02*
X132127666Y-100877666D01*
X132080047Y-101020523D01*
X131984809Y-101115761D01*
X131841952Y-101163380D01*
X131746714Y-101163380D01*
X133127666Y-101163380D02*
X132556238Y-101163380D01*
X132841952Y-101163380D02*
X132841952Y-100163380D01*
X132746714Y-100306238D01*
X132651476Y-100401476D01*
X132556238Y-100449095D01*
%TO.C,J3*%
X86407666Y-68095880D02*
X86407666Y-68810166D01*
X86360047Y-68953023D01*
X86264809Y-69048261D01*
X86121952Y-69095880D01*
X86026714Y-69095880D01*
X86788619Y-68095880D02*
X87407666Y-68095880D01*
X87074333Y-68476833D01*
X87217190Y-68476833D01*
X87312428Y-68524452D01*
X87360047Y-68572071D01*
X87407666Y-68667309D01*
X87407666Y-68905404D01*
X87360047Y-69000642D01*
X87312428Y-69048261D01*
X87217190Y-69095880D01*
X86931476Y-69095880D01*
X86836238Y-69048261D01*
X86788619Y-69000642D01*
%TO.C,J6*%
X100885666Y-65619380D02*
X100885666Y-66333666D01*
X100838047Y-66476523D01*
X100742809Y-66571761D01*
X100599952Y-66619380D01*
X100504714Y-66619380D01*
X101790428Y-65619380D02*
X101599952Y-65619380D01*
X101504714Y-65667000D01*
X101457095Y-65714619D01*
X101361857Y-65857476D01*
X101314238Y-66047952D01*
X101314238Y-66428904D01*
X101361857Y-66524142D01*
X101409476Y-66571761D01*
X101504714Y-66619380D01*
X101695190Y-66619380D01*
X101790428Y-66571761D01*
X101838047Y-66524142D01*
X101885666Y-66428904D01*
X101885666Y-66190809D01*
X101838047Y-66095571D01*
X101790428Y-66047952D01*
X101695190Y-66000333D01*
X101504714Y-66000333D01*
X101409476Y-66047952D01*
X101361857Y-66095571D01*
X101314238Y-66190809D01*
%TO.C,U6*%
X118491095Y-60983880D02*
X118491095Y-61793404D01*
X118538714Y-61888642D01*
X118586333Y-61936261D01*
X118681571Y-61983880D01*
X118872047Y-61983880D01*
X118967285Y-61936261D01*
X119014904Y-61888642D01*
X119062523Y-61793404D01*
X119062523Y-60983880D01*
X119967285Y-60983880D02*
X119776809Y-60983880D01*
X119681571Y-61031500D01*
X119633952Y-61079119D01*
X119538714Y-61221976D01*
X119491095Y-61412452D01*
X119491095Y-61793404D01*
X119538714Y-61888642D01*
X119586333Y-61936261D01*
X119681571Y-61983880D01*
X119872047Y-61983880D01*
X119967285Y-61936261D01*
X120014904Y-61888642D01*
X120062523Y-61793404D01*
X120062523Y-61555309D01*
X120014904Y-61460071D01*
X119967285Y-61412452D01*
X119872047Y-61364833D01*
X119681571Y-61364833D01*
X119586333Y-61412452D01*
X119538714Y-61460071D01*
X119491095Y-61555309D01*
%TO.C,U5*%
X76581095Y-107275380D02*
X76581095Y-108084904D01*
X76628714Y-108180142D01*
X76676333Y-108227761D01*
X76771571Y-108275380D01*
X76962047Y-108275380D01*
X77057285Y-108227761D01*
X77104904Y-108180142D01*
X77152523Y-108084904D01*
X77152523Y-107275380D01*
X78104904Y-107275380D02*
X77628714Y-107275380D01*
X77581095Y-107751571D01*
X77628714Y-107703952D01*
X77723952Y-107656333D01*
X77962047Y-107656333D01*
X78057285Y-107703952D01*
X78104904Y-107751571D01*
X78152523Y-107846809D01*
X78152523Y-108084904D01*
X78104904Y-108180142D01*
X78057285Y-108227761D01*
X77962047Y-108275380D01*
X77723952Y-108275380D01*
X77628714Y-108227761D01*
X77581095Y-108180142D01*
%TO.C,U3*%
X99568095Y-107148380D02*
X99568095Y-107957904D01*
X99615714Y-108053142D01*
X99663333Y-108100761D01*
X99758571Y-108148380D01*
X99949047Y-108148380D01*
X100044285Y-108100761D01*
X100091904Y-108053142D01*
X100139523Y-107957904D01*
X100139523Y-107148380D01*
X100520476Y-107148380D02*
X101139523Y-107148380D01*
X100806190Y-107529333D01*
X100949047Y-107529333D01*
X101044285Y-107576952D01*
X101091904Y-107624571D01*
X101139523Y-107719809D01*
X101139523Y-107957904D01*
X101091904Y-108053142D01*
X101044285Y-108100761D01*
X100949047Y-108148380D01*
X100663333Y-108148380D01*
X100568095Y-108100761D01*
X100520476Y-108053142D01*
%TO.C,U7*%
X123698095Y-65242380D02*
X123698095Y-66051904D01*
X123745714Y-66147142D01*
X123793333Y-66194761D01*
X123888571Y-66242380D01*
X124079047Y-66242380D01*
X124174285Y-66194761D01*
X124221904Y-66147142D01*
X124269523Y-66051904D01*
X124269523Y-65242380D01*
X124650476Y-65242380D02*
X125317142Y-65242380D01*
X124888571Y-66242380D01*
%TO.C,R5*%
X101941333Y-72715380D02*
X101608000Y-72239190D01*
X101369904Y-72715380D02*
X101369904Y-71715380D01*
X101750857Y-71715380D01*
X101846095Y-71763000D01*
X101893714Y-71810619D01*
X101941333Y-71905857D01*
X101941333Y-72048714D01*
X101893714Y-72143952D01*
X101846095Y-72191571D01*
X101750857Y-72239190D01*
X101369904Y-72239190D01*
X102846095Y-71715380D02*
X102369904Y-71715380D01*
X102322285Y-72191571D01*
X102369904Y-72143952D01*
X102465142Y-72096333D01*
X102703238Y-72096333D01*
X102798476Y-72143952D01*
X102846095Y-72191571D01*
X102893714Y-72286809D01*
X102893714Y-72524904D01*
X102846095Y-72620142D01*
X102798476Y-72667761D01*
X102703238Y-72715380D01*
X102465142Y-72715380D01*
X102369904Y-72667761D01*
X102322285Y-72620142D01*
X97956761Y-70429380D02*
X97385333Y-70429380D01*
X97671047Y-70429380D02*
X97671047Y-69429380D01*
X97575809Y-69572238D01*
X97480571Y-69667476D01*
X97385333Y-69715095D01*
X98575809Y-69429380D02*
X98671047Y-69429380D01*
X98766285Y-69477000D01*
X98813904Y-69524619D01*
X98861523Y-69619857D01*
X98909142Y-69810333D01*
X98909142Y-70048428D01*
X98861523Y-70238904D01*
X98813904Y-70334142D01*
X98766285Y-70381761D01*
X98671047Y-70429380D01*
X98575809Y-70429380D01*
X98480571Y-70381761D01*
X98432952Y-70334142D01*
X98385333Y-70238904D01*
X98337714Y-70048428D01*
X98337714Y-69810333D01*
X98385333Y-69619857D01*
X98432952Y-69524619D01*
X98480571Y-69477000D01*
X98575809Y-69429380D01*
X99337714Y-70429380D02*
X99337714Y-69429380D01*
X99432952Y-70048428D02*
X99718666Y-70429380D01*
X99718666Y-69762714D02*
X99337714Y-70143666D01*
%TO.C,R3*%
X102703333Y-97142380D02*
X102370000Y-96666190D01*
X102131904Y-97142380D02*
X102131904Y-96142380D01*
X102512857Y-96142380D01*
X102608095Y-96190000D01*
X102655714Y-96237619D01*
X102703333Y-96332857D01*
X102703333Y-96475714D01*
X102655714Y-96570952D01*
X102608095Y-96618571D01*
X102512857Y-96666190D01*
X102131904Y-96666190D01*
X103036666Y-96142380D02*
X103655714Y-96142380D01*
X103322380Y-96523333D01*
X103465238Y-96523333D01*
X103560476Y-96570952D01*
X103608095Y-96618571D01*
X103655714Y-96713809D01*
X103655714Y-96951904D01*
X103608095Y-97047142D01*
X103560476Y-97094761D01*
X103465238Y-97142380D01*
X103179523Y-97142380D01*
X103084285Y-97094761D01*
X103036666Y-97047142D01*
X102179523Y-101882380D02*
X101608095Y-101882380D01*
X101893809Y-101882380D02*
X101893809Y-100882380D01*
X101798571Y-101025238D01*
X101703333Y-101120476D01*
X101608095Y-101168095D01*
X102798571Y-100882380D02*
X102893809Y-100882380D01*
X102989047Y-100930000D01*
X103036666Y-100977619D01*
X103084285Y-101072857D01*
X103131904Y-101263333D01*
X103131904Y-101501428D01*
X103084285Y-101691904D01*
X103036666Y-101787142D01*
X102989047Y-101834761D01*
X102893809Y-101882380D01*
X102798571Y-101882380D01*
X102703333Y-101834761D01*
X102655714Y-101787142D01*
X102608095Y-101691904D01*
X102560476Y-101501428D01*
X102560476Y-101263333D01*
X102608095Y-101072857D01*
X102655714Y-100977619D01*
X102703333Y-100930000D01*
X102798571Y-100882380D01*
X103560476Y-101882380D02*
X103560476Y-100882380D01*
X104131904Y-101882380D02*
X103703333Y-101310952D01*
X104131904Y-100882380D02*
X103560476Y-101453809D01*
%TO.C,R2*%
X97432833Y-97142380D02*
X97099500Y-96666190D01*
X96861404Y-97142380D02*
X96861404Y-96142380D01*
X97242357Y-96142380D01*
X97337595Y-96190000D01*
X97385214Y-96237619D01*
X97432833Y-96332857D01*
X97432833Y-96475714D01*
X97385214Y-96570952D01*
X97337595Y-96618571D01*
X97242357Y-96666190D01*
X96861404Y-96666190D01*
X97813785Y-96237619D02*
X97861404Y-96190000D01*
X97956642Y-96142380D01*
X98194738Y-96142380D01*
X98289976Y-96190000D01*
X98337595Y-96237619D01*
X98385214Y-96332857D01*
X98385214Y-96428095D01*
X98337595Y-96570952D01*
X97766166Y-97142380D01*
X98385214Y-97142380D01*
X96909023Y-101882380D02*
X96337595Y-101882380D01*
X96623309Y-101882380D02*
X96623309Y-100882380D01*
X96528071Y-101025238D01*
X96432833Y-101120476D01*
X96337595Y-101168095D01*
X97528071Y-100882380D02*
X97623309Y-100882380D01*
X97718547Y-100930000D01*
X97766166Y-100977619D01*
X97813785Y-101072857D01*
X97861404Y-101263333D01*
X97861404Y-101501428D01*
X97813785Y-101691904D01*
X97766166Y-101787142D01*
X97718547Y-101834761D01*
X97623309Y-101882380D01*
X97528071Y-101882380D01*
X97432833Y-101834761D01*
X97385214Y-101787142D01*
X97337595Y-101691904D01*
X97289976Y-101501428D01*
X97289976Y-101263333D01*
X97337595Y-101072857D01*
X97385214Y-100977619D01*
X97432833Y-100930000D01*
X97528071Y-100882380D01*
X98289976Y-101882380D02*
X98289976Y-100882380D01*
X98861404Y-101882380D02*
X98432833Y-101310952D01*
X98861404Y-100882380D02*
X98289976Y-101453809D01*
%TO.C,R1*%
X92098833Y-97142380D02*
X91765500Y-96666190D01*
X91527404Y-97142380D02*
X91527404Y-96142380D01*
X91908357Y-96142380D01*
X92003595Y-96190000D01*
X92051214Y-96237619D01*
X92098833Y-96332857D01*
X92098833Y-96475714D01*
X92051214Y-96570952D01*
X92003595Y-96618571D01*
X91908357Y-96666190D01*
X91527404Y-96666190D01*
X93051214Y-97142380D02*
X92479785Y-97142380D01*
X92765500Y-97142380D02*
X92765500Y-96142380D01*
X92670261Y-96285238D01*
X92575023Y-96380476D01*
X92479785Y-96428095D01*
X91575023Y-101882380D02*
X91003595Y-101882380D01*
X91289309Y-101882380D02*
X91289309Y-100882380D01*
X91194071Y-101025238D01*
X91098833Y-101120476D01*
X91003595Y-101168095D01*
X92194071Y-100882380D02*
X92289309Y-100882380D01*
X92384547Y-100930000D01*
X92432166Y-100977619D01*
X92479785Y-101072857D01*
X92527404Y-101263333D01*
X92527404Y-101501428D01*
X92479785Y-101691904D01*
X92432166Y-101787142D01*
X92384547Y-101834761D01*
X92289309Y-101882380D01*
X92194071Y-101882380D01*
X92098833Y-101834761D01*
X92051214Y-101787142D01*
X92003595Y-101691904D01*
X91955976Y-101501428D01*
X91955976Y-101263333D01*
X92003595Y-101072857D01*
X92051214Y-100977619D01*
X92098833Y-100930000D01*
X92194071Y-100882380D01*
X92955976Y-101882380D02*
X92955976Y-100882380D01*
X93527404Y-101882380D02*
X93098833Y-101310952D01*
X93527404Y-100882380D02*
X92955976Y-101453809D01*
%TO.C,D1*%
X112291904Y-100020380D02*
X112291904Y-99020380D01*
X112530000Y-99020380D01*
X112672857Y-99068000D01*
X112768095Y-99163238D01*
X112815714Y-99258476D01*
X112863333Y-99448952D01*
X112863333Y-99591809D01*
X112815714Y-99782285D01*
X112768095Y-99877523D01*
X112672857Y-99972761D01*
X112530000Y-100020380D01*
X112291904Y-100020380D01*
X113815714Y-100020380D02*
X113244285Y-100020380D01*
X113530000Y-100020380D02*
X113530000Y-99020380D01*
X113434761Y-99163238D01*
X113339523Y-99258476D01*
X113244285Y-99306095D01*
%TO.C,R6*%
X107783333Y-72715380D02*
X107450000Y-72239190D01*
X107211904Y-72715380D02*
X107211904Y-71715380D01*
X107592857Y-71715380D01*
X107688095Y-71763000D01*
X107735714Y-71810619D01*
X107783333Y-71905857D01*
X107783333Y-72048714D01*
X107735714Y-72143952D01*
X107688095Y-72191571D01*
X107592857Y-72239190D01*
X107211904Y-72239190D01*
X108640476Y-71715380D02*
X108450000Y-71715380D01*
X108354761Y-71763000D01*
X108307142Y-71810619D01*
X108211904Y-71953476D01*
X108164285Y-72143952D01*
X108164285Y-72524904D01*
X108211904Y-72620142D01*
X108259523Y-72667761D01*
X108354761Y-72715380D01*
X108545238Y-72715380D01*
X108640476Y-72667761D01*
X108688095Y-72620142D01*
X108735714Y-72524904D01*
X108735714Y-72286809D01*
X108688095Y-72191571D01*
X108640476Y-72143952D01*
X108545238Y-72096333D01*
X108354761Y-72096333D01*
X108259523Y-72143952D01*
X108211904Y-72191571D01*
X108164285Y-72286809D01*
X112022023Y-69476880D02*
X111450595Y-69476880D01*
X111736309Y-69476880D02*
X111736309Y-68476880D01*
X111641071Y-68619738D01*
X111545833Y-68714976D01*
X111450595Y-68762595D01*
X112926785Y-68476880D02*
X112450595Y-68476880D01*
X112402976Y-68953071D01*
X112450595Y-68905452D01*
X112545833Y-68857833D01*
X112783928Y-68857833D01*
X112879166Y-68905452D01*
X112926785Y-68953071D01*
X112974404Y-69048309D01*
X112974404Y-69286404D01*
X112926785Y-69381642D01*
X112879166Y-69429261D01*
X112783928Y-69476880D01*
X112545833Y-69476880D01*
X112450595Y-69429261D01*
X112402976Y-69381642D01*
X113402976Y-69476880D02*
X113402976Y-68476880D01*
X113974404Y-69476880D02*
X113545833Y-68905452D01*
X113974404Y-68476880D02*
X113402976Y-69048309D01*
%TO.C,U1*%
X116332095Y-100671380D02*
X116332095Y-101480904D01*
X116379714Y-101576142D01*
X116427333Y-101623761D01*
X116522571Y-101671380D01*
X116713047Y-101671380D01*
X116808285Y-101623761D01*
X116855904Y-101576142D01*
X116903523Y-101480904D01*
X116903523Y-100671380D01*
X117903523Y-101671380D02*
X117332095Y-101671380D01*
X117617809Y-101671380D02*
X117617809Y-100671380D01*
X117522571Y-100814238D01*
X117427333Y-100909476D01*
X117332095Y-100957095D01*
X124404500Y-106806904D02*
X124356880Y-106902142D01*
X124356880Y-107045000D01*
X124404500Y-107187857D01*
X124499738Y-107283095D01*
X124594976Y-107330714D01*
X124785452Y-107378333D01*
X124928309Y-107378333D01*
X125118785Y-107330714D01*
X125214023Y-107283095D01*
X125309261Y-107187857D01*
X125356880Y-107045000D01*
X125356880Y-106949761D01*
X125309261Y-106806904D01*
X125261642Y-106759285D01*
X124928309Y-106759285D01*
X124928309Y-106949761D01*
X125356880Y-106330714D02*
X124356880Y-106330714D01*
X125356880Y-105759285D01*
X124356880Y-105759285D01*
X125356880Y-105283095D02*
X124356880Y-105283095D01*
X124356880Y-105045000D01*
X124404500Y-104902142D01*
X124499738Y-104806904D01*
X124594976Y-104759285D01*
X124785452Y-104711666D01*
X124928309Y-104711666D01*
X125118785Y-104759285D01*
X125214023Y-104806904D01*
X125309261Y-104902142D01*
X125356880Y-105045000D01*
X125356880Y-105283095D01*
X126579380Y-107156142D02*
X127579380Y-106822809D01*
X126579380Y-106489476D01*
X126579380Y-105965666D02*
X126579380Y-105775190D01*
X126627000Y-105679952D01*
X126722238Y-105584714D01*
X126912714Y-105537095D01*
X127246047Y-105537095D01*
X127436523Y-105584714D01*
X127531761Y-105679952D01*
X127579380Y-105775190D01*
X127579380Y-105965666D01*
X127531761Y-106060904D01*
X127436523Y-106156142D01*
X127246047Y-106203761D01*
X126912714Y-106203761D01*
X126722238Y-106156142D01*
X126627000Y-106060904D01*
X126579380Y-105965666D01*
X120737380Y-106997428D02*
X121737380Y-106664095D01*
X120737380Y-106330761D01*
X121737380Y-105997428D02*
X120737380Y-105997428D01*
%TO.C,R4*%
X85367833Y-101120380D02*
X85034500Y-100644190D01*
X84796404Y-101120380D02*
X84796404Y-100120380D01*
X85177357Y-100120380D01*
X85272595Y-100168000D01*
X85320214Y-100215619D01*
X85367833Y-100310857D01*
X85367833Y-100453714D01*
X85320214Y-100548952D01*
X85272595Y-100596571D01*
X85177357Y-100644190D01*
X84796404Y-100644190D01*
X86224976Y-100453714D02*
X86224976Y-101120380D01*
X85986880Y-100072761D02*
X85748785Y-100787047D01*
X86367833Y-100787047D01*
X84844023Y-96380380D02*
X84272595Y-96380380D01*
X84558309Y-96380380D02*
X84558309Y-95380380D01*
X84463071Y-95523238D01*
X84367833Y-95618476D01*
X84272595Y-95666095D01*
X85463071Y-95380380D02*
X85558309Y-95380380D01*
X85653547Y-95428000D01*
X85701166Y-95475619D01*
X85748785Y-95570857D01*
X85796404Y-95761333D01*
X85796404Y-95999428D01*
X85748785Y-96189904D01*
X85701166Y-96285142D01*
X85653547Y-96332761D01*
X85558309Y-96380380D01*
X85463071Y-96380380D01*
X85367833Y-96332761D01*
X85320214Y-96285142D01*
X85272595Y-96189904D01*
X85224976Y-95999428D01*
X85224976Y-95761333D01*
X85272595Y-95570857D01*
X85320214Y-95475619D01*
X85367833Y-95428000D01*
X85463071Y-95380380D01*
X86224976Y-96380380D02*
X86224976Y-95380380D01*
X86796404Y-96380380D02*
X86367833Y-95808952D01*
X86796404Y-95380380D02*
X86224976Y-95951809D01*
%TO.C,D2*%
X78128904Y-101861880D02*
X78128904Y-100861880D01*
X78367000Y-100861880D01*
X78509857Y-100909500D01*
X78605095Y-101004738D01*
X78652714Y-101099976D01*
X78700333Y-101290452D01*
X78700333Y-101433309D01*
X78652714Y-101623785D01*
X78605095Y-101719023D01*
X78509857Y-101814261D01*
X78367000Y-101861880D01*
X78128904Y-101861880D01*
X79081285Y-100957119D02*
X79128904Y-100909500D01*
X79224142Y-100861880D01*
X79462238Y-100861880D01*
X79557476Y-100909500D01*
X79605095Y-100957119D01*
X79652714Y-101052357D01*
X79652714Y-101147595D01*
X79605095Y-101290452D01*
X79033666Y-101861880D01*
X79652714Y-101861880D01*
%TD*%
M02*
